<svg xmlns="http://www.w3.org/2000/svg" viewBox="0 0 512 512"><path d="M200 0v25l7.637-1.277c2.485-.412 4.971-.822 7.457-1.232 1.706-.282 3.412-.566 5.117-.852 42.269-7.088 82.802-1.872 118.539 23.299C351.827 54.74 351.827 54.74 356 61l-102 1 33 33c-3.799 1.266-5.665.557-9.54-.398a1044.37 1044.37 0 0 1-8.086-1.977c-30.686-7.567-58.547-5.175-86.125 10.974-6.284 3.915-12.197 8.4-18.072 12.896-2.953 2.041-6.044 3.752-9.177 5.505l-.044-3.067c-.06-3.83-.136-7.66-.218-11.49a824.763 824.763 0 0 1-.084-4.93c-.14-9.757-.8-18.921-2.991-28.446-.895-4.14-1.065-7.867-.663-12.067l.281-2.941C154.397 42.153 161.421 26.684 174 15c4.199-3.235 8.534-6.148 13-9l2.953-1.898C196.54 0 196.54 0 200 0ZM60 0c22.64-.428 44.01 5.97 60.768 21.673 19.412 18.974 22.719 42.022 24.982 67.765.222 2.382.444 4.764.668 7.146l.629 6.85.293 3.204c.45 5.143.77 10.199.66 15.362-3.224-3.022-5.9-6.157-8.563-9.688-12.475-15.634-30.35-24.72-49.93-27.874-11.651-1.144-23.244.245-34.844 1.443C47.745 86.593 40.96 87.194 34 87c2.536-1.69 4.304-2.563 7.125-3.508l2.39-.8L46 81.874l2.484-.84 2.391-.793 2.18-.723C55 79 55 79 58 79v-2l-2.027-.277C38.945 72.583 24.23 59.917 12 48l-1.74-1.679a838.803 838.803 0 0 1-5.072-4.946l-1.583-1.542C2.364 38.593 1.176 37.301 0 36v-2l76-1L60 1V0Z"/><path d="M126 115c8.308 6.897 15.452 14.405 22 23-3.828 1.276-5.24.284-9-1-15.29-1.909-28.166 5.034-40 14-18.185 14.78-28.506 32.727-35 55-3 0-3 0-5.707-2.555a390.795 390.795 0 0 1-4.647-5.004C50.35 194.974 47.83 193.038 43 192c-2.797.102-2.797.102-5 2-2.785 6.123-3.963 12.944-5.262 19.504l-.592 2.92a3525.49 3525.49 0 0 0-1.834 9.138A7287.394 7287.394 0 0 0 26 247h-1.999c-4.052-39.318-.287-76.092 17.031-112.055 1.156-3.514 1.103-5.434-.031-8.945-1.809-2.28-3.251-2.887-6.107-3.318-2.55-.203-5.086-.303-7.643-.37l-2.691-.103A579.099 579.099 0 0 0 18 122c5.217-11.21 20.262-17.854 31.238-22.316C77.518 89.744 103.066 96.667 126 115ZM281.348 108.992c4.844 3.667 9.376 7.69 13.652 12.008v1l-1.772.028c-2.66.054-5.319.138-7.978.222l-2.79.043c-5.317.187-5.317.187-10.1 2.316-1.917 3.371-1.796 5.557-1.36 9.391 1.104 3.363 1.104 3.363 2.688 6.75 3.766 8.835 6.198 17.895 8.312 27.25l.754 3.336c2.283 12.675 1.42 25.842 1.246 38.664h-3l-1.234-2.24c-9.355-17.047-9.355-17.047-19.079-33.885l-1.072-1.823c-1.777-3.061-1.777-3.061-4.615-5.052-2.935-.611-4.185-.813-7 0-4.497 3.302-8.347 7.255-12.176 11.297C234 180 234 180 232 180l-.664-2.895c-3.343-13.911-8.533-25.672-20.95-33.82-11.934-6.487-26.012-9.528-39.386-11.285 2.166-4.753 5.484-8.193 9-12l1.887-2.05c26.644-27.834 67.96-30.084 99.46-8.958ZM463 149c9.998 9.732 14.601 19.513 15.137 33.598-.496 12.78-5.104 23.32-14.137 32.402-2.86 2.293-5.81 4.201-9 6l-3 1.75c-11.27 4.695-23.37 4.591-34.86.637-11.025-4.869-19.328-13.385-24.363-24.297-4.464-12.002-3.84-24.974 1.36-36.64 6.115-11.48 14.865-18.689 27.281-22.735 14.92-4.13 29.656-.428 41.582 9.285ZM286 273c24.67 24.54 40.237 53.055 44 88v4h-87c2.574-36.03 17.47-66.47 43-92ZM133 329c-1.605 5.03-3.612 9.268-6.25 13.813l-1.382 2.393c-6.048 10.242-12.789 20.055-19.486 29.88l-1.411 2.084a527.894 527.894 0 0 1-2.605 3.811C97.71 387.131 94.584 393.344 91 400H44v16h39l-3 11a3327.915 3327.915 0 0 0-3.193 12.256l-.623 2.389-.546 2.104c-.788 2.778-1.725 5.512-2.638 8.251H11c.698-6.278 1.345-11.008 3.563-16.688l.804-2.08c7.115-17.777 18.995-32.835 32.137-46.56 2.498-2.475 2.498-2.475 3.855-5.012C53 380 53 380 56.45 379.574c1.413.016 2.826.056 4.239.113l2.253.047c7.696.195 15.383.687 23.059 1.266l-.035-2.484-.028-3.266-.035-3.234c.083-2.55.352-4.595 1.098-7.016l-3.938.063c-4.756.007-9.346-.464-14.062-1.063 2.849-5.573 6.39-10.007 10.563-14.668 2.03-2.488 3.043-4.782 4.062-7.82C91.235 321.709 115.452 327.646 133 329ZM320.061 430.153c2.635 1.151 3.148 2.407 4.413 4.968l1.333 2.65 1.396 2.881 1.463 2.941a1097.52 1097.52 0 0 1 3.035 6.171c1.544 3.164 3.107 6.317 4.674 9.468.985 1.994 1.97 3.988 2.953 5.983l1.42 2.876 1.296 2.659 1.148 2.346C344 475 344 475 344 477h168v18h-26v17h-18v-17h-94v17h-19v-17l-4.2.14c-1.829.038-3.658.075-5.487.11l-2.764.102-2.686.039-2.46.063c-3.336-.63-4.9-2.186-7.403-4.454-1.588-2.442-1.588-2.442-2.954-5.196l-1.577-3.134-1.645-3.365-1.727-3.466a1567.82 1567.82 0 0 1-3.583-7.248c-1.523-3.103-3.06-6.2-4.603-9.294-1.472-2.953-2.936-5.91-4.4-8.867l-1.675-3.378-1.529-3.115-1.354-2.75C304 439 304 439 304 437a639.514 639.514 0 0 1 6.75-3.562l1.922-1.038c4.74-2.444 4.74-2.444 7.39-2.247ZM149 148h14c.87 4.352 1.316 8.493 1.547 12.902l.126 2.37c.494 10.092.57 20.188.577 30.29l.002 3.068c-.016 15.328-.49 30.253-3.252 45.37l-.617 3.387c-3.556 19.131-3.556 19.131-5.383 24.613h-25v16h20c-1.624 6.585-3.603 12.84-6.125 19.125l-.805 2.01c-1.931 4.726-1.931 4.726-3.07 5.865-2.739.089-5.453.115-8.191.098l-2.485-.005c-2.629-.005-5.258-.018-7.887-.03-1.777-.006-3.555-.01-5.333-.014-4.368-.011-8.736-.028-13.104-.049.575-3.405 1.416-6.193 2.969-9.273l1.217-2.463 1.314-2.639C120.959 275.05 129.218 250.277 136 225h20v-16h-16c1.565-13.22 3.553-26.351 5.625-39.5l.984-6.285c.795-5.072 1.592-10.144 2.391-15.215ZM307 271c23.773 2.314 45.168 17.352 60.438 35 13.845 17.52 21.35 36.87 23.562 59h-45l-1.688-12c-1.564-10.442-3.579-20.117-7.312-30l-.777-2.086c-6.233-16.549-14.882-34.142-27.888-46.495C307 273 307 273 307 271ZM266 272l-2.09 2.57C242.24 301.49 230.135 330.516 227 365h-45c2.334-18.675 2.334-18.675 4.625-25.063l.788-2.256C192.326 324.148 199.611 312.852 209 302l2.14-2.488C221.148 288.76 250.373 266.33 266 272ZM8 468h63l-1 44H8v-44ZM277 373h19v139h-19V373ZM482 120c3.85 1.782 6.28 4.077 9.25 7.125l2.703 2.758L496 132c-1.426 3.259-3.167 5.402-5.695 7.89l-2.168 2.15-2.262 2.21-2.285 2.258A1633.701 1633.701 0 0 1 478 152c-3.85-1.782-6.28-4.077-9.25-7.125l-2.703-2.758L464 140c1.426-3.259 3.167-5.402 5.695-7.89l2.168-2.15 2.262-2.21 2.285-2.258c1.859-1.835 3.722-3.666 5.59-5.492ZM390 212c3.766 3.18 7.484 6.351 10.938 9.875l1.777 1.805L404 225c-5.55 6.784-11.764 12.855-18 19-3.903-1.587-6.335-4.134-9.25-7.125l-2.703-2.758L372 232c1.426-3.259 3.167-5.402 5.695-7.89l2.168-2.15 2.262-2.21 2.285-2.258c1.859-1.835 3.722-3.666 5.59-5.492ZM476 212c7.158 5.826 13.526 12.438 20 19-3.817 4.55-7.749 8.85-12 13-3.259-1.426-5.402-3.167-7.89-5.695l-2.15-2.168-2.21-2.262-2.258-2.285A1633.701 1633.701 0 0 1 464 226c1.782-3.85 4.077-6.28 7.125-9.25l2.758-2.703L476 212ZM384 120c7.158 5.826 13.526 12.438 20 19-3.817 4.55-7.749 8.85-12 13-3.259-1.426-5.402-3.167-7.89-5.695l-2.15-2.168-2.21-2.262-2.258-2.285A1633.701 1633.701 0 0 1 372 134c1.782-3.85 4.077-6.28 7.125-9.25l2.758-2.703L384 120ZM425 234h18v27h-18v-27ZM485 173h27v18h-27v-18ZM355 173h27v18h-27v-18ZM425 104h18v27h-18v-27Z"/></svg>