<svg xmlns="http://www.w3.org/2000/svg" viewBox="0 0 512 512"><path d="M200 12c4.885 3.465 8.88 7.714 13.008 12.031a1467.99 1467.99 0 0 0 3.656 3.7c3.196 3.233 6.36 6.495 9.519 9.765 3.233 3.336 6.495 6.643 9.755 9.953C242.32 53.94 248.67 60.46 255 67c3.897-1.584 6.265-4.086 9.16-7.092l1.52-1.568c1.086-1.12 2.17-2.243 3.253-3.367 2.307-2.392 4.634-4.765 6.96-7.14 4.325-4.417 8.644-8.841 12.928-13.299a964.666 964.666 0 0 1 9.02-9.246 307.82 307.82 0 0 0 3.409-3.534c9.918-10.435 9.918-10.435 16.122-10.664 4.13.541 7.493 1.852 11.105 3.953l1.712.97a383.335 383.335 0 0 1 5.436 3.174c1.27.732 2.542 1.46 3.814 2.187 1.945 1.111 3.888 2.224 5.826 3.344 7.3 4.217 14.756 8.137 22.234 12.03C378.232 42.465 378.232 42.465 381 48c.123 4.54-.136 7.984-3.125 11.5-3.47 1.81-5.96 2.28-9.875 2.5-2.58-.914-4.637-1.821-7-3.125l-2.024-1.062c-7.328-3.891-14.537-8.02-21.73-12.155l-2.8-1.607-2.453-1.417c-4.268-2.33-8.644-4.46-12.993-6.634l-44 44c3.03 2.272 5.709 4.02 9.008 5.785l2.96 1.591 3.157 1.686 6.59 3.547 3.269 1.76a991.237 991.237 0 0 1 11.704 6.444 6428.07 6428.07 0 0 0 23.437 13l1.884 1.04a3591.719 3591.719 0 0 0 28.676 15.641 1633.66 1633.66 0 0 1 19.095 10.486c4.731 2.64 9.47 5.264 14.216 7.88l1.88 1.036c3.181 1.753 6.364 3.505 9.548 5.253 5.314 2.922 10.619 5.851 15.853 8.913l2.25 1.309a266.69 266.69 0 0 1 3.907 2.33c3.037 1.83 3.037 1.83 6.476 2.129 2.774-1.102 4.299-2.68 6.4-4.799l2.547-2.548 2.721-2.768 2.808-2.82c2.46-2.472 4.91-4.952 7.358-7.433 2.502-2.533 5.012-5.057 7.522-7.581 4.92-4.952 9.83-9.914 14.734-14.881-2.52-2.63-4.934-4.194-8.172-5.898l-3.171-1.684-3.407-1.793a5402.123 5402.123 0 0 1-7.055-3.77l-1.81-.967c-6.112-3.27-12.2-6.584-18.26-9.95l-2.913-1.586c-8.513-4.76-8.513-4.76-11.212-9.352-1.039-4.032-.404-7.225 1.5-10.875 3.201-2.721 6.375-3.733 10.5-4.125 3.262.992 3.262.992 6.688 2.875l1.994 1.07c2.454 1.326 4.884 2.691 7.318 4.055 2.214 1.217 4.429 2.431 6.645 3.645 3.71 2.033 7.415 4.073 11.111 6.131 6.075 3.382 12.161 6.73 18.31 9.974l3.327 1.763a769.707 769.707 0 0 0 6.195 3.238c8.747 4.637 8.747 4.637 11.412 9.249.928 3.171.692 5.788 0 9-1.205 1.811-1.205 1.811-2.844 3.588l-1.93 2.098c-4.414 4.59-8.896 9.105-13.41 13.595l-3.198 3.194a8927.053 8927.053 0 0 1-8.35 8.325c-2.85 2.841-5.699 5.685-8.547 8.528-5.571 5.56-11.145 11.117-16.721 16.672 4.829 5.866 10.103 11.223 15.493 16.568 1.587 1.574 3.17 3.151 4.753 4.73 3.353 3.34 6.71 6.678 10.067 10.014 3.91 3.887 7.817 7.774 11.721 11.666 1.56 1.554 3.124 3.105 4.688 4.657l2.853 2.843 2.523 2.506c2.663 2.822 3.093 4.535 3.214 8.328l.114 2.301c-.597 3.345-2.155 4.884-4.426 7.387-2.555 1.694-2.555 1.694-5.445 3.2l-3.238 1.71-3.442 1.777c-1.77.933-3.538 1.865-5.306 2.8-1.76.928-3.52 1.852-5.282 2.777a655.398 655.398 0 0 0-13.162 7.173l-1.989 1.103a106.724 106.724 0 0 0-3.773 2.203C464 279 464 279 461.009 279.93c-3.964 1.535-6.166 2.871-9.009 6.069-2.337 7.505-1.432 15.943-1.25 23.695.01 2.355.014 4.71.013 7.064.01 6.19.087 12.378.183 18.568.142 9.913.182 19.826.218 29.74.023 3.462.076 6.923.134 10.385.02 2.12.039 4.24.057 6.361l.073 2.916c.016 4.263-.017 6.603-2.29 10.302-2.397 2.208-4.693 3.663-7.583 5.168l-3.234 1.709c-1.706.88-1.706.88-3.446 1.78-1.19.625-2.38 1.252-3.57 1.88a2836.014 2836.014 0 0 1-7.093 3.735 543.477 543.477 0 0 0-12.024 6.572l-4.262 2.379-2.31 1.29a5230.855 5230.855 0 0 1-16.741 9.269l-1.884 1.04a3591.142 3591.142 0 0 1-28.676 15.641 1874.81 1874.81 0 0 0-21.319 11.725 5524.807 5524.807 0 0 1-21.005 11.634 2993.024 2993.024 0 0 1-28.628 15.608c-4.566 2.46-9.108 4.948-13.605 7.531l-2.478 1.415a383.56 383.56 0 0 0-4.488 2.612c-4.25 2.432-7.78 3.924-12.792 3.981-2.557-.915-4.596-1.824-6.938-3.125l-2.044-1.08c-2.35-1.247-4.683-2.521-7.018-3.795-1.856-.992-3.713-1.983-5.57-2.973-10.925-5.846-21.737-11.876-32.503-18.01-8.167-4.633-16.437-9.065-24.727-13.474a1015.878 1015.878 0 0 1-26.477-14.629c-7.506-4.268-15.1-8.36-22.723-12.414-9.586-5.099-19.094-10.314-28.517-15.709a532.867 532.867 0 0 0-15.104-8.314l-3.323-1.764a764.29 764.29 0 0 0-6.342-3.313l-2.882-1.525-2.54-1.32c-2.933-1.99-4.403-3.51-6.292-6.555-.6-3.43-.564-6.823-.546-10.298l-.031-3.135a1238.4 1238.4 0 0 1-.032-10.243 4066.037 4066.037 0 0 1-.129-25.805c-.02-6.361-.062-12.722-.102-19.083-.075-12.479-.125-24.957-.16-37.436a65208.115 65208.115 0 0 0-10.92-6.07c-4.937-2.744-9.88-5.476-14.83-8.196l-3.652-2.007a5205.26 5205.26 0 0 0-5.442-2.988A1442.097 1442.097 0 0 1 13 260l-2.992-1.678-2.695-1.556-2.325-1.335c-2.813-2.024-4.65-4.13-5.527-7.51-.13-3.284-.112-5.935 1.738-8.738l1.641-1.775 1.932-2.096a902.045 902.045 0 0 1 13.412-13.593l3.198-3.194c2.781-2.778 5.565-5.552 8.35-8.325 2.85-2.841 5.699-5.685 8.547-8.528C43.85 196.112 49.424 190.555 55 185c-4.829-5.866-10.103-11.223-15.493-16.568-1.587-1.574-3.17-3.151-4.753-4.73-3.353-3.34-6.71-6.678-10.066-10.014-3.91-3.887-7.818-7.774-11.722-11.666-1.56-1.554-3.124-3.105-4.688-4.657l-2.853-2.843-2.523-2.506C.24 129.194-.19 127.48-.313 123.688l-.113-2.301c.619-3.468 1.927-4.9 4.426-7.387 2.665-1.72 5.468-3.103 8.313-4.5 1.728-.878 3.454-1.76 5.18-2.645l2.74-1.404c4.634-2.43 9.165-5.038 13.704-7.638C42.55 92.897 51.245 88.154 60 83.5c8.565-4.555 17.075-9.19 25.5-14 9.016-5.148 18.136-10.083 27.301-14.958a1012.29 1012.29 0 0 0 26.457-14.617c8.887-5.055 17.896-9.877 26.933-14.658 7.257-3.846 7.257-3.846 14.344-7.994l1.902-1.16a249.383 249.383 0 0 0 4.508-2.89C191.578 11.369 195.1 10.69 200 12Zm-12.145 25.316-2.697 1.543-2.97 1.703A1054.645 1054.645 0 0 1 155 55.5c-8.565 4.555-17.075 9.19-25.5 14-8.53 4.87-17.144 9.568-25.813 14.188-8.975 4.783-17.917 9.615-26.792 14.582a2009.903 2009.903 0 0 1-11.946 6.617l-1.911 1.052-7.62 4.193A1562.45 1562.45 0 0 0 29 125c0 3.935 1.145 4.539 3.868 7.304l2.56 2.618 2.802 2.812 2.857 2.887c1.998 2.016 4.002 4.026 6.01 6.032a1081.23 1081.23 0 0 1 7.673 7.765 949.59 949.59 0 0 0 5.912 5.95 612.01 612.01 0 0 1 4.195 4.266l2.608 2.58 2.281 2.294c2.144 1.757 2.144 1.757 4.803 1.336 3.541-1.23 6.697-3.04 9.931-4.906 1.612-.913 3.224-1.824 4.836-2.735l2.71-1.537c5.671-3.198 11.377-6.335 17.079-9.478l3.763-2.077a3460.75 3460.75 0 0 1 26.797-14.605 1874.81 1874.81 0 0 0 21.319-11.725 5595.525 5595.525 0 0 1 19.121-10.594l1.885-1.04c8.513-4.701 17.052-9.35 25.615-13.96C217.875 92.668 227.967 86.904 238 81c-4.747-5.707-9.828-10.974-15.082-16.215l-2.59-2.593c-1.795-1.795-3.591-3.59-5.388-5.383a5502.071 5502.071 0 0 1-8.282-8.288l-5.24-5.236-2.512-2.518-2.308-2.298-2.038-2.036c-2.672-2.454-3.761-.811-6.705.883Zm62.903 60-2.689 1.544-2.944 1.703a1022.807 1022.807 0 0 1-27.438 15.124 1632.096 1632.096 0 0 0-29.104 15.873c-5.56 3.1-11.134 6.176-16.708 9.252-.624.345-1.247.69-1.89 1.044a2850.077 2850.077 0 0 1-25.36 13.832c-8.875 4.782-17.662 9.704-26.424 14.69-8.31 4.717-16.722 9.218-25.201 13.622 3.606 3.056 7.236 5.345 11.418 7.54l1.847.975c1.3.686 2.6 1.37 3.902 2.051 3.421 1.793 6.833 3.603 10.247 5.41l2.03 1.074a698.422 698.422 0 0 1 14.618 7.95 693854082.576 693854082.576 0 0 0 6.387 3.576c5.548 3.097 11.113 6.166 16.676 9.237l1.885 1.04a3589.99 3589.99 0 0 0 28.675 15.641c6.384 3.45 12.742 6.942 19.08 10.477 8.049 4.49 16.121 8.937 24.193 13.386 1.224.675 2.449 1.35 3.673 2.027 1.738.957 3.48 1.907 5.221 2.857a138.17 138.17 0 0 1 5.808 3.42c4.315 2.772 4.315 2.772 9.27 3.007L261 272l2.165-1.162c2.68-1.466 5.32-2.991 7.96-4.526A941.223 941.223 0 0 1 298 251.5c8.566-4.554 17.075-9.19 25.5-14 9.016-5.148 18.136-10.083 27.301-14.958a988.724 988.724 0 0 0 26.437-14.608 640.243 640.243 0 0 1 16.239-8.938l1.927-1.026c3.12-1.657 6.243-3.307 9.371-4.947l3.42-1.808 3.032-1.59c2.826-1.656 5.27-3.518 7.773-5.625l-2.205-1.17c-12.506-6.648-24.996-13.305-37.295-20.33-8.425-4.811-16.935-9.445-25.5-14a1074.325 1074.325 0 0 1-28.277-15.586c-7.506-4.268-15.1-8.36-22.723-12.414a1238.129 1238.129 0 0 1-32.074-17.695l-2.486-1.415c-1.671-.952-3.341-1.908-5.009-2.866l-2.45-1.391-2.18-1.246c-3.378-1.664-4.974-.35-8.043 1.43ZM67.734 202.007l-2.67 2.65-2.884 2.898-2.951 2.945c-2.063 2.06-4.122 4.123-6.179 6.189a2542.58 2542.58 0 0 1-7.943 7.936 2818.302 2818.302 0 0 0-6.089 6.09c-.975.976-1.952 1.951-2.93 2.925-1.365 1.36-2.723 2.727-4.08 4.094l-2.351 2.355C27.782 241.83 27.782 241.83 28 244l2.022 1.079c11.854 6.334 23.68 12.696 35.353 19.358 9.058 5.168 18.22 10.124 27.426 15.02 8.906 4.74 17.715 9.626 26.476 14.629 8.092 4.602 16.291 8.993 24.51 13.364 8.28 4.407 16.495 8.914 24.65 13.55l2.853 1.615c3.973 2.252 7.938 4.516 11.882 6.819 1.171.668 2.343 1.336 3.516 2.003l2.886 1.684c2.337 1.141 2.337 1.141 4.308.187 2.49-1.538 4.355-3.29 6.428-5.359l2.547-2.528 2.721-2.733 2.808-2.803c1.957-1.953 3.91-3.91 5.86-5.87 2.504-2.516 5.017-5.022 7.533-7.526 2.396-2.387 4.785-4.782 7.174-7.176l2.746-2.734 2.509-2.528 2.224-2.23c1.785-1.673 1.785-1.673 1.568-3.821a19770.77 19770.77 0 0 0-14.987-8.285 2876.125 2876.125 0 0 0-26.388-14.402 1104.346 1104.346 0 0 1-22.875-12.688c-9.1-5.186-18.303-10.164-27.55-15.082a908.557 908.557 0 0 1-23.7-13.043c-9.881-5.642-19.88-11.045-29.924-16.389l-3.38-1.798-3.207-1.704a390.887 390.887 0 0 1-10.286-5.761c-3.896-1.94-5.2.396-7.97 3.16Zm364.754-1.183-3.449 1.848-3.726 2.016-3.84 2.066c-8.647 4.664-17.214 9.458-25.745 14.329-8.099 4.606-16.305 9-24.53 13.375A908.556 908.556 0 0 0 347.5 247.5c-8.425 4.81-16.935 9.445-25.5 14a1213.255 1213.255 0 0 0-31.879 17.598c-5.334 3.04-10.721 5.98-16.121 8.902 1.483 3.447 3.43 5.673 6.083 8.31l2.547 2.547 2.753 2.721 2.816 2.808c2.465 2.457 4.936 4.908 7.408 7.358 2.524 2.504 5.042 5.013 7.561 7.522 4.938 4.917 9.883 9.827 14.832 14.734 3.795-1.232 7.182-2.504 10.633-4.512l2.648-1.523 2.844-1.652A941.223 941.223 0 0 1 361 311.5c8.566-4.554 17.075-9.19 25.5-14 9.016-5.148 18.136-10.083 27.301-14.958a1011.74 1011.74 0 0 0 26.441-14.608c9.031-5.136 18.184-10.035 27.358-14.91 5.513-2.933 11.004-5.88 16.4-9.024-1.481-3.433-3.419-5.672-6.05-8.31-.835-.84-1.67-1.68-2.529-2.547l-2.733-2.721-2.803-2.808c-1.953-1.957-3.91-3.91-5.87-5.86a2285.917 2285.917 0 0 1-7.526-7.533c-2.387-2.396-4.782-4.785-7.176-7.174l-2.734-2.746-2.528-2.509-2.23-2.224c-3.445-2.966-5.72-.683-9.333 1.256ZM82 298v84l24 13a3903.29 3903.29 0 0 1 13.004 7.219 5524.807 5524.807 0 0 0 21.005 11.634 3591.719 3591.719 0 0 0 28.676 15.641 1657.376 1657.376 0 0 1 19.103 10.49 5567.053 5567.053 0 0 0 25.35 14.027l3.717 2.048 1.84 1.013c3.853 2.124 7.7 4.259 11.543 6.4l2.817 1.565c1.713.952 3.423 1.907 5.132 2.865l2.262 1.254 1.948 1.088c1.61.898 1.61.898 3.603.756l.004-3.953c.017-12.286.06-24.572.128-36.859.034-6.317.06-12.633.064-18.95.004-6.095.032-12.19.077-18.285.013-2.326.018-4.652.013-6.979a832.6 832.6 0 0 1 .055-9.768l-.027-2.92c.08-4.623.178-6.634 3.098-10.382 2.498-1.838 3.549-2.59 6.588-2.529l1.938-.04c3.44 1.109 4.845 2.82 7.062 5.665.746 3.398.69 6.738.66 10.206l.031 3.106c.029 3.382.023 6.763.016 10.145.013 2.347.028 4.694.046 7.041.04 6.173.05 12.346.054 18.52.01 6.3.047 12.601.082 18.902.064 12.36.097 24.72.111 37.08 4.33-1.395 8.112-3.013 12.086-5.238l1.727-.961c1.222-.68 2.442-1.362 3.662-2.047 2.587-1.452 5.18-2.893 7.773-4.335l3.973-2.212c6.128-3.41 12.293-6.754 18.466-10.082 8.137-4.394 16.24-8.841 24.317-13.344a5524.807 5524.807 0 0 1 19.121-10.594l1.884-1.04a3593 3593 0 0 1 28.648-15.626c14.206-7.68 28.268-15.604 42.343-23.521v-84c-4.56 1.52-7.976 2.937-12.086 5.238l-1.727.961c-1.222.68-2.442 1.362-3.662 2.047-2.587 1.452-5.18 2.893-7.773 4.335l-3.973 2.212c-6.128 3.41-12.293 6.754-18.466 10.082-6.687 3.61-13.362 7.239-20 10.938l-2.068 1.151-4.514 2.515a7898.723 7898.723 0 0 1-16.064 8.924c-1.31.726-2.618 1.453-3.927 2.18-1.845 1.028-3.693 2.05-5.54 3.073l-3.256 1.807c-5.466 2.854-8.836 4.44-14.944 2.537-7.498-5.875-14.113-12.977-20.82-19.723l-2.984-2.988a7675.139 7675.139 0 0 1-7.743-7.767c-2.646-2.657-5.296-5.311-7.945-7.965A21560.452 21560.452 0 0 1 257 302c-3.759 1.56-6.1 3.882-8.933 6.77l-1.445 1.463a1080.715 1080.715 0 0 0-3.09 3.147c-1.632 1.665-3.27 3.324-4.91 4.98-4.66 4.71-9.31 9.431-13.951 14.161a2201.634 2201.634 0 0 1-8.554 8.663 651.388 651.388 0 0 0-3.24 3.3 652.616 652.616 0 0 1-4.556 4.617l-2.608 2.654c-3.874 3.206-7.612 5.334-12.782 5.115-3.207-.952-5.892-2.195-8.833-3.792l-3.41-1.838-3.625-1.99a5040.43 5040.43 0 0 0-3.786-2.053c-8.574-4.658-17.076-9.443-25.55-14.28-8.09-4.602-16.287-8.996-24.506-13.362a841.563 841.563 0 0 1-27.94-15.52l-2.648-1.523-2.285-1.33c-2.874-1.518-2.874-1.518-8.348-3.182Z"/><path d="M409 60c2.87 1.794 4.491 2.983 6 6 .46 4.591.721 7.67-2.125 11.438-3.245 2.891-4.56 3.648-8.875 3.562-4.628-1.255-6.473-2.169-9.063-6.25-1.115-4.463-.757-6.556 1.063-10.75 3.174-4.951 7.59-4.984 13-4ZM264.438 329.563c2.374 3.704 2.34 7.162 1.562 11.437-1.794 2.87-2.983 4.491-6 6-7.09.581-7.09.581-10.938-1.875-3.382-3.485-3.459-6.161-3.414-10.863C246 332 246 332 248.25 329c5.683-4.133 10.219-3.263 16.188.563Z"/></svg>