<svg xmlns="http://www.w3.org/2000/svg" viewBox="0 0 512 512"><path fill="#525252" d="M230.188 120.688c4.885 4.016 6.914 9.56 9.386 15.238l.996 2.265c1.042 2.373 2.08 4.747 3.118 7.121l2.126 4.846c1.732 3.946 3.46 7.893 5.186 11.842 1.711-3.707 3.419-7.416 5.125-11.125l1.528-3.315c3.177-6.924 6.22-13.869 9.03-20.95 2.025-4.014 4.038-6.184 8.317-7.61 5.989-.28 11.337.455 17.182 1.697l2.67.546c2.888.595 5.774 1.2 8.66 1.808l6.05 1.256c4.217.877 8.432 1.76 12.646 2.646a4414.388 4414.388 0 0 0 16.201 3.369c4.161.86 8.32 1.73 12.48 2.602 1.99.416 3.982.83 5.974 1.24 2.783.575 5.563 1.161 8.343 1.751l2.486.506c5.183 1.117 9.16 2.58 13.12 6.267 1.792 3.488 1.383 6.42 1.188 10.312l1.941-.691c5.306-1.764 9.543-3.11 15.059-1.309 2.063 2.25 2.063 2.25 3 5-1.144 7.246-9.724 12.67-14.965 17.184C384.941 175.052 382.97 177 381 179c-2.589 2.624-5.223 5.138-8 7.563l-1.863 1.645C369 190 369 190 366.892 191.42c-3.322 2.392-5.533 4.241-6.616 8.28-.266 3.351-.274 6.618-.197 9.98l-.008 3.83c-.006 2.739.012 5.475.05 8.213.061 4.328.063 8.655.058 12.984-.003 7.62.043 15.24.1 22.86.085 11.487.135 22.974.135 34.46.002 4.304.03 8.607.08 12.91.02 2.03.028 4.06.031 6.09.005 2.475.028 4.951.072 7.427l-.012 3.296.024 2.87C360 327 360 327 357.652 328.754c-2.982 1.4-5.95 2.504-9.078 3.538l-1.895.633c-2.067.688-4.137 1.367-6.206 2.047l-4.404 1.462c-3.882 1.289-7.765 2.57-11.65 3.85-4.592 1.515-9.182 3.038-13.772 4.56-3.773 1.252-7.546 2.5-11.322 3.74-6.637 2.182-13.266 4.38-19.862 6.683-2.753.962-5.51 1.912-8.268 2.863-1.89.657-3.775 1.333-5.66 2.009-10.944 3.765-17.583 2.094-28.355-1.535l-3.155-1.041a3650.304 3650.304 0 0 1-10.15-3.377c-4.689-1.554-9.38-3.103-14.07-4.652l-3.544-1.172a1352.389 1352.389 0 0 0-22.003-7.054l-2.69-.838a2390.926 2390.926 0 0 0-12.342-3.802l-4.351-1.349-3.758-1.148c-2.998-1.127-4.816-1.978-7.117-4.172-.469-2.322-.469-2.322-.425-5.108l.02-3.203.081-3.513.037-3.702c.028-2.658.062-5.316.107-7.975.068-4.212.095-8.424.113-12.637.057-11.98.139-23.958.33-35.937.106-6.615.161-13.229.16-19.845.002-3.498.03-6.992.12-10.489 1.145-15.29 1.145-15.29-4.599-28.684-3.355-2.942-6.976-4.895-10.944-6.907a90.551 90.551 0 0 1-4.516-3.637l-1.897-1.547-1.837-1.504c-5.213-4.265-10.462-8.464-15.832-12.53-2.23-2.073-3.58-4.051-4.918-6.782.896-3.853 1.652-4.768 5-7 5.668.381 11.018 1.626 16.5 3.063l2.203.564c1.767.453 3.532.913 5.297 1.373l-1.164-2.598c-4.431-10.508-4.431-10.508-3.399-14.464 2.104-3.955 4.081-6.318 8.265-8.068l3.102-.879 3.506-1.002a986.183 986.183 0 0 1 18.819-4.844l4.22-1.052c3.659-.912 7.318-1.82 10.978-2.726 3.736-.927 7.471-1.857 11.206-2.787 6.547-1.63 13.095-3.256 19.644-4.88a425.59 425.59 0 0 0 5.026-1.275c4.31-1.019 7.045-.823 10.984 1.263Zm-15.555 7.024-2.229.552c-2.427.603-4.853 1.212-7.279 1.822l-5.066 1.264c-3.538.883-7.075 1.769-10.612 2.658a5776.404 5776.404 0 0 1-13.598 3.396c-3.487.868-6.974 1.74-10.46 2.615a3062.6 3062.6 0 0 1-5.013 1.25c-2.338.583-4.673 1.17-7.009 1.76l-2.09.516c-3.306.841-6.305 1.762-9.277 3.455.11 2.812.45 5.25 1 8l.501 3.041c1.172 4 2.424 7.128 5.499 9.959 7.841 4.147 16.932 5.737 25.5 7.75 2.38.602 4.76 1.209 7.137 1.82 5.296 1.347 10.594 2.673 15.925 3.877 1.867.423 3.724.892 5.575 1.38 4.36.263 8.07-1.045 12.199-2.354l2.665-.812c2.795-.854 5.584-1.726 8.374-2.599l5.7-1.748C236.72 173.89 241.36 172.45 246 171c-1.873-5.898-3.996-11.59-6.504-17.246l-.982-2.234a1937.89 1937.89 0 0 0-2.04-4.615c-1.044-2.358-2.078-4.72-3.113-7.083l-1.99-4.506-.934-2.136c-1.25-2.805-2.246-4.99-4.437-7.18-4.047 0-7.486.73-11.367 1.712Zm59.632-.014a81.49 81.49 0 0 0-3.5 7.126l-1.23 2.846-1.285 3.018-1.328 3.086A1425.678 1425.678 0 0 0 256 170c7.982 2.829 16.113 4.996 24.303 7.126 1.596.418 3.192.84 4.785 1.269 2.326.625 4.655 1.234 6.986 1.84l2.14.583c7.916 2.012 12.659-.141 19.759-3.48 5.12-2.262 10.435-3.857 15.773-5.518 2.407-.77 4.814-1.543 7.22-2.316 3.752-1.199 7.505-2.39 11.265-3.56a1115.06 1115.06 0 0 0 10.953-3.499l3.412-1.036c6.61-2.07 6.61-2.07 11.139-7.011 1.415-3.233 1.415-3.233 1.327-6.21-.865-2.348-.865-2.348-3.1-3.207-3.753-1.243-7.554-2.068-11.42-2.86l-2.545-.533c-2.768-.579-5.537-1.15-8.306-1.72l-5.787-1.203c-4.04-.838-8.08-1.674-12.122-2.506a6662.186 6662.186 0 0 1-15.518-3.222c-3.982-.83-7.966-1.653-11.95-2.476-1.907-.394-3.814-.79-5.72-1.189a2283.97 2283.97 0 0 0-8.006-1.651l-2.376-.5c-7.444-1.928-7.444-1.928-13.947.577Zm110.254 32.043-3.483 1.154-3.794 1.27-3.912 1.301a6469.82 6469.82 0 0 0-8.237 2.75c-3.47 1.16-6.942 2.315-10.415 3.469-39.147 12.994-39.147 12.994-71.463 38.127C281 210 281 210 279 211v2l-1.773.781c-2.402 1.315-3.959 2.75-5.852 4.719l-1.79 1.844L268 222l-2 2c8.889-1.71 17.387-4.594 25.969-7.418l2.448-.804c4.272-1.403 8.542-2.812 12.811-4.226 4.383-1.45 8.772-2.878 13.163-4.302 3.401-1.107 6.797-2.231 10.192-3.36 1.615-.533 3.232-1.06 4.85-1.581 12.95-4.08 12.95-4.08 23.567-12.309v-2l1.734-.738c2.67-1.487 4.404-3.243 6.516-5.45 2.87-2.94 5.757-5.762 8.875-8.437 3.819-3.28 7.356-6.779 10.875-10.375.978-.98 1.957-1.96 2.938-2.938L392 158c-2.733 0-4.884.876-7.481 1.74ZM122 168a150.64 150.64 0 0 0 10.938 10.125l1.685 1.422c4.762 3.992 9.623 7.85 14.531 11.66l1.655 1.285 1.431 1.105C154 195 154 195 156.303 197.347c5.087 4.227 11.834 5.66 18.045 7.594a2154.22 2154.22 0 0 0 15.438 4.904c3.756 1.184 7.507 2.384 11.259 3.583 6.77 2.159 13.54 4.312 20.323 6.43 2.46.773 4.916 1.562 7.367 2.365l3.532 1.14 3.133 1.029c2.691.869 2.691.869 5.6-.392-4.408-4.514-8.889-8.852-13.68-12.957-2.368-2.086-4.66-4.236-6.953-6.405a427.437 427.437 0 0 0-6.804-6.225 246.313 246.313 0 0 1-4-3.718c-5.906-4.992-11.92-6.922-19.278-8.96l-3.176-.903c-3.367-.953-6.738-1.893-10.109-2.832l-6.673-1.876a3480.168 3480.168 0 0 0-16.707-4.634c-3.439-.946-6.875-1.9-10.311-2.855l-6.606-1.819-3.09-.861-2.858-.78c-.825-.229-1.65-.456-2.5-.69-2.522-.625-2.522-.625-6.255-.485Zm120 10.336-2.398.725c-1.675.508-3.35 1.018-5.024 1.529-2.566.781-5.134 1.553-7.703 2.324L222 184.398l-2.336.698c-4.22 1.26-4.22 1.26-7.664 3.904 1.832 1.689 3.666 3.376 5.5 5.063l1.531 1.412a413.074 413.074 0 0 0 8.867 7.916c4.903 4.271 9.59 8.763 14.278 13.267 3.749 3.557 7.42 6.632 11.824 9.342l1.25-1.285c3.151-3.2 6.346-6.283 9.75-9.215a122.58 122.58 0 0 0 7.5-7c2.954-3 6.046-5.775 9.234-8.523 4.49-3.917 8.868-7.959 13.266-11.977-2.637-1.399-5.113-2.407-8.002-3.145l-2.346-.606-2.504-.632-2.591-.664c-1.803-.46-3.607-.92-5.411-1.376-2.77-.702-5.536-1.41-8.302-2.12l-5.258-1.34-2.516-.644c-6.381-1.61-9.867-1.023-16.07.863Zm99.608 27.971-2.24.744a2161.22 2161.22 0 0 0-7.329 2.46l-5.129 1.714c-3.59 1.199-7.18 2.402-10.768 3.609-4.561 1.533-9.125 3.06-13.69 4.585-4.388 1.467-8.776 2.936-13.163 4.405l-2.486.832c-2.373.795-4.745 1.592-7.117 2.39l-2.039.682c-6.918 2.33-13.767 4.815-20.647 7.272v120c32.048-10.392 32.048-10.392 64.034-20.968 3.14-1.048 6.282-2.095 9.423-3.14 3.06-1.018 6.12-2.04 9.18-3.06l3.395-1.13 3.096-1.035 2.717-.906c2.166-.715 2.166-.715 4.155-1.761V204c-4.225 0-7.458.972-11.392 2.307ZM161 207v119c30.419 10.145 30.419 10.145 60.878 20.168 3.436 1.123 6.872 2.25 10.308 3.375l6.607 2.16 3.089 1.013 2.802.914 2.464.805c1.689.614 1.689.614 2.852.565V236c-8.233-3.307-8.233-3.307-16.557-6.21l-3.593-1.164-3.791-1.216-4.006-1.292a5793.4 5793.4 0 0 0-8.363-2.69c-3.521-1.13-7.041-2.265-10.56-3.402-2.757-.89-5.514-1.777-8.271-2.664-1.913-.615-3.825-1.232-5.737-1.849-9.337-2.993-18.707-5.744-28.122-8.513Z"/><path fill="#383838" d="M155 219h5v91l-2 1c-.151 3.629-.151 3.629 1 7l-4-1v-98Z"/><path fill="#707070" d="m252 231 4 2 2-2h3l1 3-5 1v120h-1V242l-4-1-1 114h-1l-.007-1.853c-.06-14.863-.135-29.727-.229-44.59-.045-7.188-.084-14.376-.11-21.564-.023-6.263-.057-12.527-.103-18.79-.024-3.318-.04-6.635-.049-9.953-.01-3.7-.037-7.4-.07-11.1l.005-3.35-.038-3.042-.014-2.653L249 236l-3-2 2.375.5c2.507.562 2.507.562 4.625.5l-1-4Z"/><path fill="#6C6C6C" d="M160 207h1v119h-1l-.586-6.055c-.278-2.172-.278-2.172-2.414-3.945-.125-2.625-.125-2.625 0-5l3-1V207Z"/><path fill="#7D7D7D" d="M275 222v5h5c-2.855 1.903-4.42 2.462-7.688 3.125l-2.449.508L268 231c-1.125-3.75-1.125-3.75 0-6l-3-1c6.625-2 6.625-2 10-2Z"/><path fill="#747474" d="M160 305h1v21h-1l-.586-6.055c-.278-2.172-.278-2.172-2.414-3.945-.125-2.625-.125-2.625 0-5l3-1v-5Z"/><path fill="#828282" d="m252 231 4 2 2-2h3l1 3-2.438.375L257 235l-1 2c-2.063.625-2.063.625-4 1l.563-1.813c.658-2.351.658-2.351-.563-5.187Z"/><path fill="#636363" d="m264 224 4 1v6l-5 2 1-9Z"/><path fill="#454545" d="m155 212 5 1v6h-5v-7Z"/><path fill="#6F6F6F" d="M274 120c-1.393 3.367-2.979 4.986-6 7 .628-3.645 1.853-7 6-7Z"/><path fill="#BDBDBD" d="m0 480 6 1v1H0v-2Z"/><path fill="#E3E3E3" d="m223 164 1 3-2-1 1-2Z"/><path fill="#6B6B6B" d="m395 0 2 1ZM144 0l2 1Z"/></svg>