<svg xmlns="http://www.w3.org/2000/svg" viewBox="0 0 512 512"><path fill="#474747" d="M230.188 120.688c4.885 4.016 6.914 9.56 9.386 15.238l.996 2.265c1.042 2.373 2.08 4.747 3.118 7.121l2.126 4.846c1.732 3.946 3.46 7.893 5.186 11.842 1.711-3.707 3.419-7.416 5.125-11.125l1.528-3.315c3.177-6.924 6.22-13.869 9.03-20.95 2.025-4.014 4.038-6.184 8.317-7.61 5.989-.28 11.337.455 17.182 1.697l2.67.546c2.888.595 5.774 1.2 8.66 1.808l6.05 1.256c4.217.877 8.432 1.76 12.646 2.646a4414.388 4414.388 0 0 0 16.201 3.369c4.161.86 8.32 1.73 12.48 2.602 1.99.416 3.982.83 5.974 1.24 2.783.575 5.563 1.161 8.343 1.751l2.486.506c5.183 1.117 9.16 2.58 13.12 6.267 1.792 3.488 1.383 6.42 1.188 10.312l1.941-.691c5.306-1.764 9.543-3.11 15.059-1.309 2.063 2.25 2.063 2.25 3 5-1.144 7.246-9.724 12.67-14.965 17.184C384.941 175.052 382.97 177 381 179c-2.589 2.624-5.223 5.138-8 7.563l-1.863 1.645C369 190 369 190 366.892 191.42c-3.322 2.392-5.533 4.241-6.616 8.28-.266 3.351-.274 6.618-.197 9.98l-.008 3.83c-.006 2.739.012 5.475.05 8.213.061 4.328.063 8.655.058 12.984-.003 7.62.043 15.24.1 22.86.085 11.487.135 22.974.135 34.46.002 4.304.03 8.607.08 12.91.02 2.03.028 4.06.031 6.09.005 2.475.028 4.951.072 7.427l-.012 3.296.024 2.87C360 327 360 327 357.652 328.754c-2.982 1.4-5.95 2.504-9.078 3.538l-1.895.633c-2.067.688-4.137 1.367-6.206 2.047l-4.404 1.462c-3.882 1.289-7.765 2.57-11.65 3.85-4.592 1.515-9.182 3.038-13.772 4.56-3.773 1.252-7.546 2.5-11.322 3.74-6.637 2.182-13.266 4.38-19.862 6.683-2.753.962-5.51 1.912-8.268 2.863-1.89.657-3.775 1.333-5.66 2.009-10.944 3.765-17.583 2.094-28.355-1.535l-3.155-1.041a3650.304 3650.304 0 0 1-10.15-3.377c-4.689-1.554-9.38-3.103-14.07-4.652l-3.544-1.172a1352.389 1352.389 0 0 0-22.003-7.054l-2.69-.838a2390.926 2390.926 0 0 0-12.342-3.802l-4.351-1.349-3.758-1.148c-2.998-1.127-4.816-1.978-7.117-4.172-.469-2.322-.469-2.322-.425-5.108l.02-3.203.081-3.513.037-3.702c.028-2.658.062-5.316.107-7.975.068-4.212.095-8.424.113-12.637.057-11.98.139-23.958.33-35.937.106-6.615.161-13.229.16-19.845.002-3.498.03-6.992.12-10.489 1.145-15.29 1.145-15.29-4.599-28.684-3.355-2.942-6.976-4.895-10.944-6.907a90.551 90.551 0 0 1-4.516-3.637l-1.897-1.547-1.837-1.504c-5.213-4.265-10.462-8.464-15.832-12.53-2.23-2.073-3.58-4.051-4.918-6.782.896-3.853 1.652-4.768 5-7 5.668.381 11.018 1.626 16.5 3.063l2.203.564c1.767.453 3.532.913 5.297 1.373l-1.164-2.598c-4.431-10.508-4.431-10.508-3.399-14.464 2.104-3.955 4.081-6.318 8.265-8.068l3.102-.879 3.506-1.002a986.183 986.183 0 0 1 18.819-4.844l4.22-1.052c3.659-.912 7.318-1.82 10.978-2.726 3.736-.927 7.471-1.857 11.206-2.787 6.547-1.63 13.095-3.256 19.644-4.88a425.59 425.59 0 0 0 5.026-1.275c4.31-1.019 7.045-.823 10.984 1.263Z"/><path fill="#F2F2F2" d="M353 203v121l-40 13c-13.684 4.682-13.684 4.682-27.36 9.387a826.941 826.941 0 0 1-19.202 6.363l-2.29.728C259.261 355 259.261 355 257 355V234l10-3c3.052-1.122 3.052-1.122 6.092-2.275 3.187-1.211 6.42-2.281 9.653-3.36a6700.33 6700.33 0 0 1 9.337-3.126l2.474-.828c4.308-1.441 8.617-2.88 12.926-4.318 4.451-1.486 8.9-2.977 13.35-4.47a7264.84 7264.84 0 0 1 10.281-3.435c1.642-.549 3.284-1.098 4.925-1.65 2.286-.768 4.575-1.53 6.864-2.29l2.054-.695c2.819-.93 5.052-1.553 8.044-1.553Z"/><path fill="#F3F3F3" d="M161 207c3.158.632 5.958 1.232 8.977 2.2l2.249.715 2.399.773 5.18 1.652 2.647.847c2.309.737 4.619 1.466 6.93 2.192a2412.82 2412.82 0 0 1 24.257 7.743c3.358 1.09 6.716 2.18 10.073 3.275a508.21 508.21 0 0 0 22.662 6.802C249 234 249 234 250 235c.096 1.556.122 3.117.12 4.676l.004 3.064-.01 3.39v3.546c0 3.22-.006 6.438-.013 9.657-.006 3.36-.006 6.721-.008 10.082-.003 6.367-.011 12.735-.021 19.103-.011 7.248-.017 14.495-.022 21.743-.01 14.913-.028 29.826-.05 44.739-5.571-1.164-10.978-2.528-16.396-4.29l-2.06-.667c-2.213-.717-4.426-1.44-6.638-2.164l-4.672-1.517a8656.045 8656.045 0 0 1-12.24-3.986c-4.134-1.348-8.27-2.69-12.404-4.034-6.065-1.972-12.13-3.944-18.194-5.922l-3.679-1.2c-4.243-1.393-8.48-2.808-12.717-4.22V207Z"/><path fill="#F1F1F1" d="M288.84 126.529c3.228.646 6.446 1.327 9.664 2.018l3.623.767c3.813.808 7.624 1.622 11.435 2.436 3.745.796 7.49 1.59 11.234 2.384 2.467.524 4.934 1.05 7.4 1.576 5.9 1.259 11.8 2.499 17.714 3.69l3.293.669c2.018.408 4.038.81 6.058 1.208 5.503 1.116 10.535 2.606 15.739 4.723.437 4.476-.288 7.495-2.613 11.366-2.555 3.01-5.87 3.743-9.575 4.759l-2.396.728A441.464 441.464 0 0 1 353 165c-1.538.446-3.076.894-4.613 1.344-2.18.637-4.36 1.273-6.543 1.9a118.005 118.005 0 0 0-13.39 4.795c-2.941 1.152-5.922 2.017-8.954 2.899-5.099 1.488-9.342 3.414-13.793 6.304-4.46 1.249-8.289-.125-12.707-1.242l-4.055-1.001c-3.853-.96-7.7-1.945-11.543-2.94-2.424-.627-4.848-1.249-7.273-1.87l-4.629-1.193-2.194-.562c-5.076-1.319-5.076-1.319-7.306-2.434.597-5.45 2.487-9.886 4.71-14.828l1.119-2.516c.778-1.746 1.56-3.49 2.345-5.234a1289.17 1289.17 0 0 0 3.568-8.031c.76-1.699 1.52-3.397 2.281-5.094l1.07-2.43 1.022-2.247.886-1.977c3.517-5.781 10.322-3.141 15.84-2.114Z"/><path fill="#F0F0F0" d="m223 125.625 2.063-.148c1.937.523 1.937.523 3.369 2.646 1.684 3.09 3.16 6.216 4.6 9.428l.84 1.871c.582 1.302 1.164 2.603 1.744 3.906.878 1.97 1.761 3.937 2.646 5.904A924.993 924.993 0 0 1 243 160l1.11 2.56c1.94 4.759 1.94 4.759 1.738 7.54-.848 1.9-.848 1.9-2.803 2.917l-2.576.73-2.872.841-3.097.85-6.332 1.8-3.174.89c-2.66.775-5.267 1.624-7.88 2.54-8.945 3.083-15.056 3.709-24.114.332-2.037-.6-4.08-1.182-6.125-1.75l-3.473-1.008c-7.112-2.033-14.275-3.894-21.428-5.78l-3.29-.876-2.952-.78c-7.22-2.13-7.22-2.13-8.958-4.422l-.829-1.904-.922-2.1-.898-2.192-.969-2.159c-1.318-3.097-2.154-5.463-2.164-8.853 1.402-3.026 3.06-3.651 6.008-5.176a109.764 109.764 0 0 1 6.854-1.885l2.027-.5c2.197-.538 4.396-1.065 6.596-1.592 1.532-.373 3.065-.748 4.598-1.123 4.024-.983 8.051-1.957 12.08-2.928 4.897-1.183 9.793-2.377 14.688-3.57 3.808-.928 7.616-1.854 11.425-2.774l2.12-.513 5.665-1.37c8.004-2.024 8.004-2.024 9.947-2.12Z"/><path fill="#EFEFEF" d="m394 158-1.59 1.406c-6.285 5.605-12.433 11.345-18.552 17.13a440.6 440.6 0 0 1-4.278 3.985 122.704 122.704 0 0 0-5.658 5.833c-10.252 10.861-20.978 14.69-35.11 18.771-2.165.659-4.33 1.322-6.492 1.99-4.347 1.339-8.7 2.66-13.056 3.968-5.84 1.768-11.629 3.665-17.405 5.632l-2.565.872c-3.187 1.088-6.372 2.18-9.556 3.276-2.128.73-4.259 1.452-6.39 2.172l-3.594 1.23C267 225 267 225 265 224c5.403-5.493 10.775-10.947 16.66-15.93a164.588 164.588 0 0 0 5.711-5.328c9.956-9.646 19.47-17.066 32.613-21.808l2.434-.887c11.764-4.243 23.625-8.21 35.485-12.175 3.458-1.156 6.912-2.324 10.366-3.494 2.683-.907 5.369-1.805 8.055-2.702 1.894-.634 3.785-1.277 5.676-1.92l3.453-1.145c1.002-.336 2.004-.672 3.036-1.02C391 157 391 157 394 158Z"/><path fill="#F0F0F0" d="M258 177c1.365.307 2.73.612 4.095.915 3.992.908 7.963 1.888 11.93 2.896 2.495.631 4.992 1.248 7.49 1.863 1.59.398 3.178.797 4.766 1.197l2.26.556c5.229 1.343 5.229 1.343 7.459 3.573l-1.66 1.477c-5.93 5.302-11.765 10.696-17.572 16.132a2108.22 2108.22 0 0 1-14.644 13.572c-2.986 2.74-2.986 2.74-5.733 5.714-.46.364-.918.73-1.391 1.105-3.271-.44-4.974-1.583-7.32-3.844l-1.857-1.764-1.948-1.892a5650.4 5650.4 0 0 0-4.059-3.863l-1.987-1.901a310.529 310.529 0 0 0-7.017-6.423 1514.54 1514.54 0 0 0-6.366-5.692c-1.653-1.473-3.3-2.953-4.946-4.434l-1.567-1.383c-2.692-2.433-4.43-4.524-5.933-7.804 4.936-1.61 9.88-3.193 14.832-4.755 1.68-.533 3.357-1.073 5.033-1.62C249.539 174.86 249.539 174.86 258 177Z"/><path fill="#EEE" d="M118 166a592.7 592.7 0 0 1 43.552 11.27 361.339 361.339 0 0 0 16.624 4.523l3.636.899c2.306.563 4.615 1.113 6.928 1.647 10.927 2.68 18.793 7.645 26.76 15.474l3.89 3.722 1.874 1.805c2.286 2.185 4.628 4.303 6.986 6.41a1645.38 1645.38 0 0 1 10.875 9.813l2.82 2.566L244 226c-2 1-2 1-4.987.183a359.5 359.5 0 0 1-3.83-1.316l-2.07-.703c-1.465-.497-2.929-.999-4.392-1.503a1615.83 1615.83 0 0 0-9.195-3.128c-1.457-.492-2.912-.986-4.367-1.483-4.85-1.648-9.735-3.135-14.659-4.55-2.836-.825-5.669-1.658-8.5-2.5l-3.69-1.09a688.159 688.159 0 0 1-10.84-3.342c-1.45-.453-2.904-.895-4.361-1.324-11.262-3.331-18.587-8.247-27.109-16.244-2.275-1.887-4.602-3.686-6.938-5.5l-1.705-1.332c-2.442-1.906-4.89-3.805-7.337-5.704a3987.937 3987.937 0 0 1-5.895-4.589l-1.86-1.436A205.226 205.226 0 0 1 118 167v-1Z"/><path fill="#383838" d="M155 219h5v91l-2 1c-.151 3.629-.151 3.629 1 7l-4-1v-98Z"/><path fill="#717171" d="M252 231c3.875 1.875 3.875 1.875 5 3 .096 1.569.122 3.142.12 4.714l.004 3.09-.01 3.417v3.577c0 3.245-.006 6.491-.013 9.737-.006 3.388-.006 6.777-.008 10.166-.003 6.42-.011 12.841-.021 19.262-.011 7.309-.017 14.617-.022 21.925-.01 15.037-.028 30.075-.05 45.112h-1V242l-4-1-1 114h-1V235h3l-1-4Z"/><path fill="#6C6C6C" d="M160 207h1v119h-1l-.586-6.055c-.278-2.172-.278-2.172-2.414-3.945-.125-2.625-.125-2.625 0-5l3-1V207Z"/><path fill="#5A5A5A" d="M275 222v5l-5 1v2c-4.362 2.447-8.027 3.503-13 4l2-4h3l.438-2.875C264 224 264 224 266.065 223.156c2.993-.653 5.867-1.156 8.934-1.156Z"/><path fill="#606060" d="M252 231c3.875 1.875 3.875 1.875 5 3 .141 2.67.042 5.324 0 8l-5-1c-.625-1.813-.625-1.813-1-4l2-3-1-3Z"/><path fill="#EAEAEA" d="M250 345v10l-9-2 5-5 1.75-1.813C249 345 249 345 250 345Z"/><path fill="#747474" d="M160 305h1v21h-1l-.586-6.055c-.278-2.172-.278-2.172-2.414-3.945-.125-2.625-.125-2.625 0-5l3-1v-5Z"/><path fill="#6C6C6C" d="M275 222v5l-5 1v2h-2l-1-6c5.75-2 5.75-2 8-2Z"/><path fill="#797979" d="M252 231c1.938.75 1.938.75 4 2 .75 2.125.75 2.125 1 4l-5 1 .563-1.813c.658-2.351.658-2.351-.563-5.187Z"/><path fill="#7D7D7D" d="m267 232-10 2 1-3c4.196-1.166 4.82-1.09 9 1Z"/><path fill="#6F6F6F" d="M274 120c-1.393 3.367-2.979 4.986-6 7 .628-3.645 1.853-7 6-7Z"/><path fill="#BDBDBD" d="m0 480 6 1v1H0v-2Z"/><path fill="#6B6B6B" d="m395 0 2 1ZM144 0l2 1Z"/></svg>