<svg xmlns="http://www.w3.org/2000/svg" viewBox="0 0 512 512"><path d="M399 45c2.938 1.863 2.938 1.863 6 4.313l1.685 1.342A464.479 464.479 0 0 1 412 55l1.77 1.454C434.438 73.508 451.694 93.354 466 116l1.23 1.93c34.943 55.395 44.281 123.047 30.082 186.507-8.395 34.98-24.087 66.924-46 95.313-14.49 18.805-22.436 38.035-20.312 62.25.656 3.6 1.473 7.134 2.313 10.695 2.094 10.067.815 18.357-4.313 27.305-4.656 6.272-10.704 9.568-18 12-20.064 2.432-41.254-7.797-58.406-17.438l-2.21-1.23a137.936 137.936 0 0 1-4.026-2.363c-10.694-6.098-22.076-5.317-33.689-2.67-2.724.62-5.46 1.18-8.196 1.745-1.348.278-2.695.558-4.042.841-7.446 1.559-14.837 2.606-22.431 3.115l-2.868.199C230.057 497.096 179.186 490.365 140 466c-1.871-1.977-1.871-1.977-3-4 .12-3.428.333-5.947 2.188-8.875 2.767-1.718 4.507-1.986 7.812-2.125 3.528 1.182 6.797 2.846 10.125 4.5 48.731 23.135 101.543 27.263 153.962 15.8 20.68-4.405 35.893.344 54.094 10.12C385.554 492.382 385.554 492.382 408 495c3.737-1.625 5.848-3.556 8-7 1.925-5.775.904-11.02-.5-16.813-4.869-22.447-.661-47.433 11.438-66.937 3.874-5.864 8.186-11.408 12.437-17 35.952-47.402 53.481-108.354 45.84-167.61C478.663 172.525 459.677 129.608 428 94l-1.338-1.525c-9.952-11.322-20.777-21.339-32.885-30.319C391.283 60.22 389.051 58.4 387 56c-.47-3.753-.531-6.038 1.313-9.375 3.4-3.275 6.396-2.745 10.687-1.625ZM255.125-.313l2.87.007C272.176-.254 286.063.126 300 3l3.016.618c18.597 3.934 36.57 9.367 53.984 17.007l2.519 1.091c4.66 2.122 8.201 4.212 11.481 8.284.63 3.99.63 6.017-1.563 9.438-3.243 2.079-5.733 2.186-9.437 1.562-3.95-1.437-7.706-3.257-11.5-5.063C299.092 13.424 240.9 10.241 189 26l-3.688 1.078C154.286 36.74 126.157 53.392 102 75l-1.704 1.517C93.786 82.34 87.53 88.222 82 95l-2.922 3.45C71.214 107.814 64.285 117.511 58 128l-1.382 2.295C25.29 182.97 18.13 245.885 32.6 304.969c12.433 48.775 42.02 94.772 82.579 124.867 6.483 4.975 6.483 4.975 7.386 8.164-.007 3.859-.108 5.462-2.691 8.5-3.437 1.793-5.035 1.968-8.875 1.5-2.437-1.525-4.452-2.977-6.625-4.813l-1.852-1.514c-6.05-5-11.869-10.233-17.523-15.673l-1.9-1.817C73.903 415.34 65.557 406.276 58 396l-2.508-3.316C40.42 372.473 29.294 349.727 21 326l-.852-2.436C.687 266.614 4.836 201.776 29 147l1.054-2.412c10.383-23.512 24.51-45.325 42.352-63.877a130.581 130.581 0 0 0 6.031-6.773C121.407 24.682 191.213-.576 255.125-.313Z"/><path d="M285.375 168c5.72 3.279 9.891 7.769 13 13.563 1.988 7.751 1.76 15.499 1.739 23.45v4.26c0 3.838-.006 7.676-.013 11.515-.006 4.017-.006 8.034-.008 12.051-.003 7.6-.01 15.2-.021 22.8-.011 8.656-.017 17.311-.022 25.966-.01 17.799-.028 35.597-.05 53.395l3.309-.035c1.45-.01 2.9-.019 4.351-.027l2.175-.026c9.633-.044 15.855 2.179 23.157 8.565 5.362 6.738 6.711 13.501 6.57 21.96l-.03 2.802c-.249 7.96-1.714 13.64-7.212 19.574-8.315 7.686-16.934 8.336-27.757 8.348l-3.146.015c-3.425.015-6.85.022-10.276.027l-7.167.017c-5.007.01-10.013.017-15.02.02-6.4.006-12.8.03-19.2.058-4.934.019-9.868.024-14.803.026-2.359.003-4.717.01-7.076.024-3.307.017-6.614.015-9.92.008l-2.924.028c-9.124-.055-18.307-1.78-25.031-8.384-6.765-8.222-7.689-17.672-7-28 .79-7.77 3.855-14.48 9.89-19.605C202.533 333.923 211.136 335 223 335l-1-105-26-1c-9.8-5.6-9.8-5.6-12.086-12.078-1.203-4.44-1.245-8.783-1.226-13.36l-.05-2.447c-.005-6.825 1.463-12.063 5.112-17.928 5.118-4.975 11.058-5.66 17.867-5.996l5.031-.326c2.597-.153 5.194-.3 7.791-.446 14.574-.843 28.157-2.784 41.811-8.169 8.539-3.153 16.638-4.02 25.125-.25ZM261.5 184.813c-15.59 5.394-30.492 6.788-46.902 7.757-7.331.434-7.331.434-14.598 1.43-1.517 3.034-1.144 6.176-1.125 9.5l-.012 2.09c-.053 3.832-.053 3.832 1.137 7.41l2.092.06c3.157.096 6.314.205 9.47.315l3.292.094c5.724.209 10.735.622 16.146 2.531l2.313.813c2.376 1.672 2.823 3.462 3.687 6.187l1 3c.096 1.628.135 3.259.14 4.89l.018 3.054.003 3.349.015 3.528c.015 3.86.022 7.721.027 11.581l.013 6.002c.012 5.572.02 11.145.023 16.718.004 7.208.022 14.416.05 21.624.023 5.572.033 11.144.034 16.716.001 3.328.008 6.655.025 9.983.017 3.711.015 7.422.008 11.133l.028 3.342c-.005 1.011-.01 2.022-.017 3.064l.005 2.658c-.455 2.883-1.369 4.26-3.372 6.358-2.616.498-2.616.498-5.734.504l-3.43.057c-1.183 0-2.367 0-3.586.002-10.57-.183-10.57-.183-20.25 3.437-3.538 5.707-3.966 11.494-2.566 18.023 1.177 3.467 2.359 4.86 5.541 6.648 4.717 1.85 9.355 1.75 14.363 1.717l3.077.016c3.343.013 6.684.005 10.026-.006a3866.386 3866.386 0 0 0 21.618-.007c6.247-.017 12.493-.007 18.74.01 4.808.012 9.617.008 14.425 0 2.303-.002 4.607 0 6.91.008 3.22.008 6.438-.004 9.657-.02l2.877.018c6.07-.059 10.561-.824 15.18-5.13 1.661-3.283 1.586-6.054 1.59-9.714l.058-3.934c-.572-4.183-1.447-5.757-4.496-8.629-3.762-1.846-6.903-2.279-11.07-2.379l-3.465-.103-3.59-.08c-2.357-.06-4.714-.124-7.07-.192l-3.157-.072C288 350 288 350 285 349l-.01-2.454a50580.46 50580.46 0 0 0-.278-59.089c-.05-9.525-.096-19.05-.134-28.575-.033-8.301-.073-16.603-.12-24.904a4937.68 4937.68 0 0 1-.061-13.188 3147.3 3147.3 0 0 0-.064-12.413c-.01-1.519-.015-3.037-.017-4.556a850.603 850.603 0 0 0-.038-6.221l-.016-3.517c-.378-4.45-1.381-7.152-4.45-10.395-6.122-3.674-12.139-1.155-18.312 1.125ZM286.313 79.188C294.92 88.195 300.264 98.346 300 111c-1.356 11.556-5.101 20.343-14 28-9.58 7.123-19.102 10.122-31.16 8.602-10.68-2.343-19.66-7.435-25.84-16.602-2.942-5.372-5.597-10.817-6-17l-.152-1.938C222.318 100.201 226.105 90.778 234 82c14.681-14.152 35.906-13.647 52.313-2.813ZM243 96c-3.576 5.601-5.25 11.407-4 18 2.423 7.368 6.2 12.254 13 16 6.31 2.638 12.076 2.54 18.398.059 6.224-3.133 10.124-6.776 12.414-13.414 1.655-6.669 1.38-12.49-1.855-18.622-4.175-6.35-9.545-9.435-16.957-11.023-8.275-.88-15.65 2.782-21 9Z"/></svg>