<svg xmlns="http://www.w3.org/2000/svg" viewBox="0 0 512 512"><path d="m290 35 2.373.586C330.409 45.266 361.862 69.423 382 103c19.954 35.1 25.257 75.11 14.813 114.188-5.631 19.658-16.02 36.586-27.618 53.214-3.82 5.48-7.568 11.009-11.32 16.536a315799.3 315799.3 0 0 1-4.406 6.484l-2.239 3.295a49454.105 49454.105 0 0 1-12.966 19.075 14972.28 14972.28 0 0 1-16.444 24.13A1168.809 1168.809 0 0 0 313 353a714.518 714.518 0 0 0 14.836 3.191C358.289 362.497 394.76 371.115 414 398c4.99 8.63 6.5 16.963 4.387 26.879-5.175 16.026-19.114 25.708-33.452 33.16C356.155 472.34 323.772 478.295 292 481l-3.375.288c-10.667.811-21.306.912-32 .9l-2.804-.002c-47.976-.085-112.922-4.466-149.044-40.397C97.605 434.161 93.707 426.566 93 416c.638-11.862 6.48-21.02 15-29 26.076-20.954 59.916-27.966 92-34l-1.836-2.535c-4.772-6.618-9.43-13.293-13.93-20.098-4.091-6.177-8.253-12.305-12.422-18.43l-2.223-3.267a7596.58 7596.58 0 0 0-10.386-15.22 4391.38 4391.38 0 0 1-9.187-13.485 2535.432 2535.432 0 0 0-4.29-6.29C127.728 247.35 127.728 247.35 122 234l-1.434-3.29c-3.423-8.349-5.682-16.906-7.566-25.71l-.691-3.145C109.007 183.5 109.557 163.113 114 145l.554-2.322C121.16 115.918 134.744 92.565 154 73l1.634-1.69C176.19 50.306 204.193 37.56 233 33l3.5-.559c17.245-2.058 36.643-1.705 53.5 2.559ZM166 83l-2.496 2.3c-22.585 21.529-36.654 53.837-37.781 84.938-.27 12.553.228 24.565 3.277 36.762l.488 1.955c4.607 17.826 13.259 33.501 23.74 48.497 2.672 3.842 5.29 7.721 7.915 11.596 3.608 5.325 7.233 10.638 10.857 15.952l1.95 2.861 7.385 10.83c5.451 7.992 10.89 15.992 16.33 23.993 4.606 6.775 9.218 13.547 13.835 20.316 4.584 6.72 9.164 13.442 13.738 20.17l4.257 6.257c3.355 4.93 6.705 9.865 10.035 14.813 1.551 2.304 3.106 4.607 4.661 6.909 1.096 1.625 2.186 3.253 3.277 4.882l2.02 2.989 1.767 2.628C253 404 254.878 405.988 257 408l1.69-2.497c9.596-14.177 19.194-28.354 28.845-42.494 4.663-6.83 9.316-13.669 13.965-20.509 5.327-7.837 10.66-15.671 16-23.5 6.727-9.862 13.442-19.732 20.152-29.605a19754.28 19754.28 0 0 1 11.085-16.287c2.15-3.16 4.297-6.323 6.443-9.487 2.26-3.332 4.531-6.654 6.828-9.96 19.829-28.726 29.273-62.667 23.47-97.409-6.526-35.15-25.91-67.066-55.478-87.62C278.656 34.228 210.534 40.867 166 83Zm-54.504 322.773c-3.17 4.705-3.47 9.794-2.496 15.227 1.243 3.059 2.913 5.454 5 8l1.434 1.77C137.2 454.816 180.656 461.523 211 465l2.642.312c54.966 6.19 133.064 6.1 178.643-29.824 6.7-5.764 10.924-10.583 12.34-19.363-.413-7.005-5.194-13.085-10.125-17.75-19.213-15.524-44.954-22.45-68.688-27.25l-3.036-.615c-2.919-.56-5.84-1.048-8.776-1.51l-3.22-.57c-3.032-.427-5.73-.704-8.78-.43-2.702 2.232-3.66 3.282-5.25 6.188l-1.078 1.732a181.92 181.92 0 0 0-2.301 3.81c-2.943 4.872-6.192 9.551-9.371 14.27l-2.123 3.158c-2.14 3.18-4.29 6.356-6.44 9.53l-2.17 3.22c-3.273 4.83-6.582 9.629-10.064 14.31-.53.716-1.061 1.43-1.608 2.167C260 428 260 428 256.312 428.813c-5.7-1.399-8.105-5.75-11.261-10.45-.37-.548-.74-1.097-1.123-1.662-1.209-1.794-2.412-3.591-3.615-5.389a3523.006 3523.006 0 0 0-18.76-27.737c-1.77-2.598-3.538-5.198-5.307-7.798l-1.76-2.586A786.16 786.16 0 0 1 211 368c-30.214-3.206-79.547 14.24-99.504 37.773Z"/><path d="M253.395 86.84c22.808-.806 47 7.031 63.917 22.535 1.935 1.842 3.81 3.723 5.688 5.625l2.465 2.469C342.577 135.487 350.437 159.456 350 184c-.886 21.438-8.49 42.074-23 58l-2.68 2.96C310.36 259.889 292.143 269.494 272 273l-3.875.688c-25.614 2.582-50.974-4.088-71.075-20.297C177.823 237.275 165.475 215.132 163 190c-1.947-27.226 5.867-51.627 23.728-72.396 15.608-17.486 38.477-28.723 61.846-30.475 1.608-.086 3.214-.182 4.82-.29ZM197 129c-14.098 16.755-20.467 37.28-19 59 2.537 19.877 11.433 37.303 26 51 2.176 1.319 2.176 1.319 4 2l.883-2.563c4.125-11.416 9.043-19.637 20.008-25.437 7.855-3.552 15.851-3.251 24.298-3.295a382.09 382.09 0 0 0 4.579-.062c12.833-.25 25.119.587 35.298 9.384 6.338 6.466 9.063 13.195 10.934 21.973 10.805-3.467 17.993-16.448 23.05-26.065 9-18.33 9.843-38.743 4.243-58.193-3.45-9.985-8.419-18.697-15.293-26.742l-2.313-3.063c-14.372-15.709-34.097-23.464-55.003-25.12-23.604-.74-45.951 9.952-61.684 27.183Zm32.66 100.965c-5.83 7.199-6.983 11.807-6.66 21.035 17.04 9.503 36.457 9.776 55 5 6.449-1.655 6.449-1.655 12-5 .612-6.727-.643-12.106-4-18-4.547-5.37-10.52-8.598-17.498-9.404-4.89-.044-4.89-.044-9.78-.042-2.086.008-4.168-.02-6.253-.052-8.832-.048-15.89.653-22.809 6.463Z"/><path d="M276.813 140.188c6.43 5.043 10.648 12.86 12.187 20.812 1.04 9.355-.334 17.679-5.73 25.512-5.036 6.08-11.324 11.073-19.27 12.488-11.552.77-20.168.219-29.313-7.438-7.076-6.627-10.697-12.51-11.094-22.33-.154-10.622 2.025-18.64 9.419-26.478 12.764-11.26 29.712-11.484 43.8-2.566Zm-34.75 15.875c-3.56 5.069-3.84 9.91-3.063 15.937 1.909 5.024 5.045 8.99 9.91 11.375 5.677 1.698 11.142 1.563 16.465-1 5.96-5.211 5.96-5.211 8.625-12.375l.313-3.25c-.447-5.36-2.008-9.628-6.032-13.332-8.876-6.526-18.89-5.824-26.219 2.644Z"/></svg>