<svg xmlns="http://www.w3.org/2000/svg" viewBox="0 0 512 512"><path d="M315 96c18.235-.402 35.96.219 54 3l2.748.422c15.595 2.523 29.497 7.33 40.252 19.578 6.442 9.562 10.345 19.585 13.813 30.5l1.514 4.658c3.803 11.766 7.376 23.603 10.86 35.467l.723 2.435c6.294 21.328 6.294 21.328 3.965 28.315-5.702 7.983-14.571 9.677-23.766 11.32-18.036 2.611-44.67 5.248-60.136-6.195-6.956-6.352-9.375-14.85-11.086-23.871l-.53-2.641c-.373-1.852-.74-3.705-1.104-5.559a1590.39 1590.39 0 0 0-2.956-14.534l-.596-2.884c-7.816-39.76-7.816-39.76-26.998-74.722L314 99l1-3ZM73 211l2 1c.547 2.585.547 2.585.965 6.02l.486 3.79.487 4.002c.824 16.475.824 16.475 8.062 30.188 4.242 1.728 9.737 1.659 14.094.39 2.852-2.08 3.314-4.519 4.406-7.827 2.453-7.417 2.453-7.417 6.5-9.563 3.5-.063 3.5-.063 7 1 2.438 3.063 2.438 3.063 4 6l1.285-1.75c4.71-5.963 4.71-5.963 9.215-7.25 5.262 1.503 7.739 4.35 10.5 9 2.434 6.486 3.326 13.145 3.594 20.04.25 2.363.25 2.363 3.406 3.96 2.855.525 5.66.952 8.535 1.313l2.643.35c2.889.382 5.78.752 8.67 1.122l6.036.792c5.307.695 10.615 1.38 15.923 2.065 4.312.557 8.622 1.121 12.932 1.686 5.161.675 10.322 1.348 15.484 2.02l2.959.385c2.792.363 5.584.724 8.377 1.084.81.105 1.62.21 2.455.32 5.653.725 11.313 1.321 16.986 1.863l-.484-3.414c-1.558-12.557-2.012-25.644 4.359-36.899 5.704-7.213 5.704-7.213 10.125-8.687 4.802-.504 8.796-.533 13.25 1.438 9.23 8.6 14.22 20.954 14.908 33.432.037 2.92.018 5.834-.033 8.755l-.027 3.043A973.65 973.65 0 0 1 292 288c21.542 5.554 43.128 6.465 65.25 4 9.756-1.067 19.485-1.254 29.29-1.3 1.73-.008 3.46-.021 5.19-.04 39.686-.393 39.686-.393 51.09 8.809C444 301 444 301 444.375 303.5c-.45 2.995-1.087 3.6-3.375 5.5-1.907.844-1.907.844-4.07 1.5l-2.44.745-2.615.755-2.719.794A175.109 175.109 0 0 1 404 318l-2.214.296c-11.183 1.421-22.43 1.974-33.69 2.374-1.433.052-2.867.107-4.3.168-24.701 1.015-48.908-2.487-73.162-6.745-4.022-.703-8.047-1.391-12.071-2.082a9598.106 9598.106 0 0 1-24.96-4.334c-8.066-1.41-16.133-2.814-24.2-4.216C194.261 297.35 159.122 291.226 124 285l-3.326-.59a7502.432 7502.432 0 0 1-18.754-3.347c-1.869-.335-3.737-.67-5.606-1.001C87.09 278.42 77.975 276.747 69 274l-1-5c3.393-2.262 5.015-2.362 9.023-2.633l3.594-.254 3.758-.238 3.734-.262c4.972-.34 9.906-.667 14.891-.613l-1-4-3.762-.078c-1.642-.056-3.284-.114-4.925-.172l-2.475-.043c-3.903-.158-6.34-.423-9.783-2.387C70.949 246.908 72.707 225.36 73 211Zm53.418 35.133c-2.98 3.924-3.21 9.07-3.418 13.867.637 3.506 1.646 6.709 3 10h2l-.5-2.375c-1.643-11.91-1.643-11.91 1.5-16.625 2.625-.688 2.625-.688 5-1l-1-4c-3.443-1.173-3.443-1.173-6.582.133ZM260 248c-6.816 10.495-7.72 23.525-5.277 35.563 1.792 5.805 3.914 10.188 8.277 14.437 2.853 1.427 4.835 1.31 8 1 5.252-2.876 7.128-7.557 9-13 2.904-11.557 1.76-25.03-4.39-35.328-2.354-3.047-4.026-4.458-7.673-5.797-3.71.158-5.12.679-7.937 3.125Zm-152 21 1 2Z"/><path d="M246 129c.223 7.753.425 15.507.598 23.262.082 3.6.17 7.201.277 10.801.102 3.476.184 6.95.252 10.427.044 1.97.109 3.94.174 5.909l.061 3.64.081 3.202c-.561 3.496-1.673 4.62-4.443 6.759-3.28.913-3.28.913-7.145 1.484l-2.084.32c-1.453.219-2.906.43-4.36.634-2.208.31-4.412.643-6.616.98-6.306.939-12.402 1.703-18.795 1.582-2.324-.185-2.324-.185-5 2-1.92.43-3.86.777-5.805 1.07l-3.457.528-3.613.527-3.59.55c-4.888.734-9.584 1.436-14.535 1.325-2.024-.161-2.024-.161-3.654.916-3.188 1.473-6.438 1.91-9.88 2.428-.754.12-1.508.238-2.284.36-2.485.391-4.972.772-7.46 1.151l-5.193.806c-3.626.562-7.253 1.119-10.881 1.672-4.647.709-9.291 1.432-13.935 2.159-3.574.558-7.149 1.107-10.724 1.655-1.713.263-3.425.529-5.137.798-2.395.374-4.791.738-7.188 1.099l-2.136.341c-3.749.551-6.896.798-10.528-.385-4.671-5.882-5.369-13.128-5.313-20.375l.015-2.26c.232-10.908.232-10.908 3.298-15.365 3.9-2.695 7.954-4.084 12.464-5.385l2.23-.662c2.438-.721 4.878-1.433 7.318-2.144l5.182-1.53c4.57-1.349 9.143-2.689 13.716-4.028 4.52-1.324 9.036-2.656 13.553-3.987 5.325-1.57 10.65-3.137 15.98-4.695 7.725-2.26 15.448-4.526 23.15-6.865 3.167-.96 6.336-1.915 9.505-2.868 1.474-.446 2.946-.896 4.417-1.35a762.77 762.77 0 0 1 6.047-1.833l3.42-1.046c3.093-.622 5.013-.471 8.018.393l2-3c1.7-.823 1.7-.823 3.76-1.458l2.336-.737 2.525-.758 2.593-.802c1.81-.556 3.622-1.107 5.435-1.653 2.778-.839 5.55-1.698 8.322-2.56 1.758-.538 3.516-1.075 5.275-1.61l2.52-.783c.773-.23 1.547-.46 2.345-.699l2.061-.625C243 128 243 128 246 129ZM321 133l3.246 1.918c4.605 4.068 5.125 10.73 6.317 16.457.292 1.335.585 2.67.88 4.006C340.408 196.819 351.326 247.584 328 286l-2-1 .656-2.14c3.637-13.403 5.026-29.245-1.656-41.86l-1.285-2.492C312.222 217.955 293.618 200.968 271 194c-5.238-1.293-10.548-1.357-15.918-1.621C252 192 252 192 250 190a122.72 122.72 0 0 1-.23-8.863v-2.733c.004-1.924.012-3.849.024-5.773.018-2.866.02-5.732.02-8.598.026-12.701.477-25.352 1.186-38.033 24.314-9.816 47.745-6.258 70 7Z"/><path fill="#00A651" d="M305.266 99.355c9.694 6.901 16.3 16.873 18.734 28.645l-2 1a144.86 144.86 0 0 1-7.5-3.75c-10.805-5.588-20.656-8.35-32.938-8.5l-3.746-.078c-13.339.519-26.262 4.748-38.878 8.754a5623.51 5623.51 0 0 1-5.197 1.624 4322.542 4322.542 0 0 0-11.025 3.461 6919.965 6919.965 0 0 1-17.346 5.44l-2.944.92-5.917 1.849c-2.978.931-5.957 1.863-8.935 2.796-18.602 5.82-37.236 11.535-55.88 17.215l-6.906 2.105c-11.236 3.426-11.236 3.426-16.56 5.046l-3.523 1.073-3.353 1.019c-2.348.718-4.692 1.445-7.035 2.178l-3.565 1.114-3.204 1.009C85 173 85 173 83 173c1-3 1-3 2.604-3.972l2.119-.855 2.432-1 2.693-1.068 2.827-1.15c3.125-1.267 6.256-2.517 9.388-3.768 2.21-.89 4.42-1.783 6.63-2.675 24.564-9.896 49.22-19.559 73.893-29.18a9266.9 9266.9 0 0 0 10.08-3.941c20.874-8.174 41.762-16.3 62.834-23.954l2.245-.82c15.598-5.684 29.266-10.388 44.52-1.262ZM255.871 196.782l2.082-.018c19.512.15 35.512 9.897 49.047 23.236 6.831 7.351 12.412 15.691 18 24l-1 2-2.168-2.457c-14.349-16.043-32.86-33.373-55.61-34.706-19.914-.284-39.382.957-59.177 3.023-3.939.407-7.88.796-11.82 1.186-7.414.738-14.826 1.489-22.238 2.246-13.33 1.362-26.662 2.706-39.996 4.036-4.666.466-9.33.94-13.995 1.42-2.886.297-5.771.587-8.657.875-1.971.2-3.942.406-5.912.613l-3.56.353-3.087.315c-2.778.096-5.09-.241-7.78-.904 2.979-1.986 4.265-2.382 7.688-2.89l2.923-.446 3.206-.464 3.382-.509c3.715-.556 7.432-1.102 11.149-1.648l7.814-1.166c6.191-.925 12.384-1.841 18.578-2.755 7.588-1.12 15.175-2.251 22.762-3.382 7.974-1.188 15.95-2.373 23.926-3.548 10.816-1.593 21.63-3.188 32.43-4.881l6.884-1.062c1.944-.304 3.887-.621 5.83-.94a130.845 130.845 0 0 1 19.3-1.527Z"/><path d="M267.375 254.5c2.625.5 2.625.5 4.813 2.938 3.772 7.415 4.529 14.408 2.812 22.562-1.376 3.35-2.457 5.457-5 8-2.438.375-2.438.375-5 0-3.627-3.492-4.833-8.248-5.3-13.148-.025-6.685.34-11.817 3.3-17.852 2-2 2-2 4.375-2.5Z"/><path fill="#00A651" d="m351 225 2.875 2.625C369.937 241.192 387.766 242.303 408 241c9.89-.961 18.896-4.158 28-8 1.666-.67 3.332-1.337 5-2-.347 2.597-.62 3.703-2.723 5.344-20.244 10.004-47.71 12.6-69.277 5.656-7.486-2.857-14.071-5.611-18-13v-4ZM247 234l1 4c-3.473 1.075-6.615 1.087-10.237 1.022l-3.822-.061-4.113-.082-4.22-.072c-3.696-.062-7.391-.131-11.087-.202-3.774-.07-7.548-.135-11.322-.2-7.4-.13-14.8-.265-22.199-.405l-1-2c4.98-.977 9.798-1.211 14.852-1.316l2.588-.063c1.81-.044 3.62-.085 5.431-.124 2.697-.058 5.393-.124 8.09-.19 12.015-.285 24.021-.358 36.039-.307ZM441 243c2.146 3.455 2.161 5.93 1.813 9.938l-.231 3.09c-.643 3.282-1.588 5.297-3.582 7.972-9.158 4.58-19.895 5.343-30 5v-2l3-.7c7.552-1.837 13.586-3.736 20-8.3l3-1c1.76-2.893 2.884-6.105 4.125-9.25l1.07-2.703L441 243ZM350 247c1.835 2.414 3.42 4.732 4.938 7.375C361.13 262.99 373.19 265.196 383 267v1c-21.02 2.3-21.02 2.3-29.625-2.813-3.24-2.983-4.237-5.042-4.52-9.437-.11-6.24-.11-6.24 1.145-8.75ZM158 262c13.284-.22 26.321.2 39.54 1.544 2.657.27 5.315.521 7.974.77C216.77 265.401 227.872 266.99 239 269v1c-11.165.333-22.093-.702-33.188-1.813l-5.597-.545c-14.09-1.384-28.162-2.91-42.215-4.642v-1ZM343.188 88l3.173.29c2.547.232 5.093.469 7.639.71v1c-3.864.886-7.544 1.189-11.504 1.316l-3.896.128c-1.388.04-2.775.08-4.163.118l-2.12.065c-14.441.434-28.87.484-43.317.373 15.012-7.903 37.759-5.56 54.188-4Z"/></svg>