<svg xmlns="http://www.w3.org/2000/svg" viewBox="0 0 512 512"><path d="M246 128c.58 16.83 1.102 33.66 1.188 50.5l.039 3.735.003 3.421.013 2.994C247 191 247 191 245 193c-2.64.595-5.226 1.084-7.895 1.508l-2.376.395c-1.662.274-3.324.545-4.986.811-2.536.408-5.07.828-7.604 1.25-1.615.266-3.23.53-4.846.794l-2.289.379c-3.705.59-7.252 1.001-11.004.863-2.16-.11-2.16-.11-4.691.938-3.451 1.108-6.652 1.625-10.246 2.062l-3.961.5-6.162.75c-2.001.245-4.002.497-6.002.75l-3.598.438c-3.287.458-3.287.458-6.102 1.52-3.465 1.115-6.788 1.724-10.386 2.279l-2.087.326c-2.26.351-4.522.695-6.785 1.039l-4.752.73c-3.315.51-6.631 1.016-9.948 1.519-4.23.641-8.46 1.294-12.689 1.95-3.27.506-6.542 1.005-9.814 1.503-1.558.238-3.117.478-4.675.72-16.132 2.5-16.132 2.5-23.102 1.976l-2-2c-.24 6.863.667 13.303 1.813 20.063l.501 3.181C80.257 244.9 81.311 249.911 84 255c2.884 1.442 5.417 1.094 8.625 1.063l3.602-.028L99 256l.7-1.688c4.87-11.396 4.87-11.396 8.3-15.312 3-1.188 3-1.188 6-1 3.236 1.505 5.613 3.362 8 6l2.063-2.938c2.144-2.531 3.037-3.1 6.312-4.312 4.324.298 6.008 1.22 9.05 4.207 4.777 6.198 5.785 13.292 6.177 20.922l.122 2.085c.098 1.678.188 3.357.276 5.036l1.747.225c7.48.965 14.96 1.932 22.44 2.9l3.66.473a7928.594 7928.594 0 0 1 39.618 5.203l3.155.424c4.922.661 9.843 1.326 14.764 1.996l5.28.713 2.401.33c3.36.451 6.538.736 9.935.736l-.219-1.73c-1.48-12.926-2.716-28.073 5.219-39.27 4.558-4.751 8.013-7.751 14.75-8.313 5.386.109 9.139 2.16 12.844 5.938C293.208 252.846 293.38 270.558 293 288c3.624.652 7.25 1.295 10.875 1.938l3.07.552c15.822 2.79 30.8 2.764 46.764 1.227C381.92 289.05 414.042 286.21 441 297c2.596 2.167 3.818 3.189 4.563 6.5-.822 3.652-2.468 4.424-5.563 6.5-2.978 1.255-6.021 2.172-9.125 3.063l-2.685.78c-8.98 2.517-17.934 4.092-27.19 5.157l-2.589.312c-13.551 1.56-27.116 1.906-40.745 1.985-1.778.01-3.555.025-5.333.044-9.912.096-19.622-.332-29.458-1.603l-3.142-.4c-11.519-1.511-22.948-3.49-34.385-5.514l-6.971-1.218c-6.167-1.077-12.332-2.161-18.497-3.247-6.438-1.133-12.878-2.259-19.317-3.385a686580.822 686580.822 0 0 1-11.694-2.046l-11.67-2.045a13010.617 13010.617 0 0 0-49.059-8.509l-10.62-1.822c-45.954-7.886-45.954-7.886-66.574-11.736-1.757-.328-3.514-.653-5.272-.975-2.284-.42-4.565-.852-6.846-1.29l-3.69-.698c-3.157-.858-5.44-2.028-8.138-3.853l1-5c11.005-3.668 22.54-3.13 34-3v-4l-3.29.105c-1.444.029-2.89.056-4.335.082l-2.16.077c-4.813.066-8.062-.57-12.215-3.264-9.155-13.864-8.081-33.1-7-49l1-1a463.518 463.518 0 0 0-1-5c-.558-8.098-.496-16.513 3-24 3.242-2.981 6.85-4.094 10.996-5.285l2.171-.646c2.421-.719 4.846-1.425 7.27-2.131l5.2-1.538c3.894-1.151 7.79-2.297 11.687-3.44a9513.17 9513.17 0 0 0 20.268-5.976 31516.165 31516.165 0 0 1 30.077-8.88c2.457-.724 4.914-1.446 7.372-2.167 5.136-1.506 10.265-3.021 15.374-4.617l2.394-.738c2.005-.62 4.005-1.253 6.006-1.887 3.199-.698 5.08-.627 8.185.305v-2a4341.305 4341.305 0 0 1 21-7l2.468-.822c2.154-.715 4.31-1.417 6.47-2.115l3.714-1.215c3.286-.832 5.981-.912 9.348-.848ZM75 211l1 3Zm52 35c-2.592 5.939-3.404 10.541-3 17h1l2-11 6-2v-3l-6-1Zm134.313 1.75c-6.423 9.026-8.628 20.378-6.817 31.219 1.71 7.653 4.041 13.842 9.879 19.219 3.192.988 5.03.466 7.984-1.043 4.885-3.408 6.333-8.621 7.641-14.145 1.218-11.852.77-23.612-6.313-33.625-4.144-3.663-7.573-4.751-12.375-1.625ZM125 263l1 3Zm1 4 1 2ZM315 95c16.842-.212 33.313.434 50 2.875l3.36.49c18.04 2.779 33.773 7.277 45.605 22.096 5.183 7.554 8.147 15.921 11.035 24.539l.976 2.877c4.657 13.827 8.91 27.775 12.907 41.806.448 1.568.9 3.135 1.358 4.7 6.07 20.852 6.07 20.852 2.712 27.777-4.834 7.144-14.328 8.397-22.226 9.926-7.443 1.194-14.834 1.25-22.354 1.23-2.37-.003-4.738.02-7.107.045-12.939.055-24.806-1.023-34.946-9.818-8.096-8.278-9.203-21.24-11.155-32.177-7.606-47.424-7.606-47.424-29.466-88.995C314 100 314 100 314.25 97.188L315 95Z"/><path d="M323.836 134.379c3.333 2.47 4.32 4.504 5.226 8.621l.436 1.908c.332 1.485.65 2.973.956 4.463.623 3 1.302 5.985 1.98 8.973 8.772 39.534 18.926 88.878-2.258 126.222C329 286 329 286 326 287c.454-4.696 1.011-9.213 2.063-13.813 1.724-8.337 1.918-17.14-1.063-25.187l-1.758-.863c-3.138-1.591-5.095-4.087-7.367-6.7C303.492 224.42 286.129 211.15 264 209c-12.103-.379-23.988.33-36.023 1.54l-5.086.489c-4.496.433-8.991.876-13.486 1.322-4.682.462-9.365.913-14.048 1.366a10516.191 10516.191 0 0 0-49.648 4.931l-6.37.647c-6.405.65-12.809 1.306-19.212 1.977l-6.783.697-2.981.32c-6.805.69-13.526.822-20.363.711v-3c36.633-5.757 73.282-11.41 109.967-16.825 3.584-.53 7.167-1.062 10.75-1.598 4.261-.636 8.523-1.266 12.786-1.889 1.56-.23 3.117-.46 4.675-.695 24.224-3.636 45.822-4.797 66.873 9.812 11.93 8.88 20.68 19.939 28.949 32.195-9.285-19.852-28.611-37.486-49-45-7.25-2.127-14.418-3.332-21.953-3.79C251 192 251 192 250 191a125.78 125.78 0 0 1-.114-6.08v-3.944l.016-4.292.005-4.368c.003-3.839.013-7.677.024-11.516.01-3.915.015-7.829.02-11.743.01-7.686.028-15.371.049-23.057 24.43-12.448 51.85-5.842 73.836 8.379Z"/><path d="M305 98c9.564 6.999 15.506 15.74 19 27v4c-3.977-.596-6.868-1.873-10.375-3.813-10.672-5.368-20.78-7.548-32.625-7.812l-2.562-.107c-20.188.04-41.139 9.308-60.156 15.339-5.63 1.782-11.264 3.55-16.898 5.318l-4.335 1.363c-21.37 6.717-42.806 13.218-64.241 19.724a3488.672 3488.672 0 0 0-21.316 6.554l-5.132 1.59c-3.044.943-6.086 1.894-9.127 2.85l-3.944 1.22-3.353 1.05c-2.782.686-5.087.874-7.936.724 1-3 1-3 3.863-4.495 1.288-.54 2.582-1.069 3.88-1.587l2.125-.88a1064.6 1064.6 0 0 1 7.007-2.85l4.938-2.025c4.245-1.738 8.495-3.461 12.748-5.178 2.279-.92 4.556-1.843 6.834-2.766 45.88-18.589 91.995-36.863 138.543-53.719l2.864-1.041C277.715 93.853 292.55 90.289 305 98ZM267.938 253.938c4.093 1.42 5.066 3.292 7.062 7.062 2.175 6.54 2.309 15.792-.313 22.188-2.825 4.709-2.825 4.709-4.687 5.812-2.938.188-2.938.188-6-1-4.55-6.296-5.671-13.418-5-21 2.71-12.93 2.71-12.93 8.938-13.063ZM350 223h2a85.511 85.511 0 0 1 2.75 3.563c7.908 9.333 21.004 13.193 32.805 14.273C406.31 242.094 424.26 238.607 441 230l1 4c-12.426 11.125-34.96 12.817-51 12-13.322-.93-27.716-2.63-38-12-2.442-3.781-3.396-6.506-3-11Z"/><path d="M325 86.813h2.074c21.617.027 21.617.027 30.926 2.187l1 2c-7.627.29-15.255.574-22.882.854-2.586.096-5.173.193-7.759.292-14.793.56-29.555 1.02-44.359.854 2.778-2.778 5.223-2.828 9.063-3.563l3.847-.753c9.369-1.627 18.587-1.884 28.09-1.871ZM441 242l2 1c.591 15.787.591 15.787-3 21-5.4 2.808-10.637 3.831-16.625 4.688l-2.523.392c-3.98.599-7.815 1.093-11.852.92l-1-3 3.219-.918c7.656-2.248 14.182-4.463 20.781-9.082h2a168.12 168.12 0 0 0 4.063-8.625c.945-2.148 1.888-4.276 2.937-6.375ZM350 245c2.007 2.007 2.564 3.192 3.625 5.75 2.997 6.016 7.274 9.073 13.504 11.438A195.117 195.117 0 0 0 377 265l2.613.688c1.79.457 3.588.889 5.387 1.312-2.888 2.888-5.25 2.291-9.201 2.322l-2.861-.01-2.78.05c-7.318.005-14.006-.63-19.701-5.565-1.859-3.568-1.94-6.627-1.77-10.547l.03-2.074c.114-5.007.114-5.007 1.283-6.176Z"/></svg>