<svg xmlns="http://www.w3.org/2000/svg" viewBox="0 0 512 512"><path d="m205.636-.628 2.306-.022c2.546-.017 5.09 0 7.636.019 1.827-.005 3.654-.013 5.48-.022 4.96-.018 9.917-.005 14.876.014 5.187.017 10.374.008 15.561.003 8.71-.005 17.42.011 26.13.04 10.075.031 20.148.031 30.223.014 9.687-.016 19.374-.01 29.061.008 4.125.007 8.25.006 12.374-.002 4.856-.007 9.71.005 14.565.032 1.784.007 3.567.007 5.35 0 2.432-.009 4.862.007 7.293.03l2.148-.026c3.327.057 5.1.345 7.799 2.353 2.286 3.2 2.11 5.354 1.562 9.187-2.197 2.989-3.39 3.9-7.085 4.508l-3.698.011-2.065.023c-2.281.02-4.562.012-6.844.004-1.636.009-3.272.02-4.908.031-4.442.028-8.884.031-13.326.03-4.642.004-9.283.03-13.925.052-8.79.041-17.58.061-26.37.074-10.008.016-20.015.055-30.022.095-20.586.082-41.171.137-61.757.172l1.655 1.851 2.177 2.44 2.155 2.414c2.502 2.853 4.823 5.788 7.138 8.795 4.199 5.413 8.503 10.726 12.875 16 4.237 5.115 8.42 10.259 12.5 15.5 4.731 6.078 9.609 12.027 14.517 17.963a886.451 886.451 0 0 1 10.874 13.4c2.228 2.785 4.479 5.551 6.733 8.315A1338.536 1338.536 0 0 1 308 127l1.43 1.836c1.4 1.803 2.798 3.608 4.195 5.414l1.292 1.665c2.875 3.734 4.218 5.693 4.14 10.396l-.036 2.744-.054 3.02c-.03 2.17-.058 4.342-.086 6.514l-.049 3.503c-.089 7.396-.107 14.793-.136 22.19a1476.75 1476.75 0 0 1-.2 19.504 962.757 962.757 0 0 0-.132 18.855 319.161 319.161 0 0 1-.105 7.176c-.808 12.135-.808 12.135 3.198 23.143 3.48 3.231 7.359 5.32 11.69 7.198 2.755 1.252 5.202 2.915 7.708 4.6 1.777 1.124 3.554 2.246 5.332 3.367 6.929 4.367 13.755 8.793 20.375 13.617 2.98 1.537 5.131 1.498 8.438 1.258l.68-1.617c1.759-3.175 4.073-5.784 6.445-8.508a2571.972 2571.972 0 0 0 4.488-5.238c2.545-3.004 4.981-6.094 7.43-9.176 5.101-6.415 10.278-12.766 15.644-18.961l2.075-2.406c4.258-3.983 8.322-5.524 14.113-5.531l2.93-.06c8.123 1.262 12.997 5.814 18.257 11.81C454.418 251.54 462.16 259.16 470 267l1-252h-65c-4-5-4-5-3.938-8.625C403.312 1.88 403.312 1.88 406 0c3.13-.394 3.13-.394 7.038-.42l2.16-.026c2.357-.023 4.714-.024 7.072-.023l4.92-.023c3.442-.013 6.882-.015 10.323-.009 4.402.006 8.803-.025 13.204-.065 3.39-.026 6.78-.029 10.17-.025 1.621-.002 3.244-.012 4.866-.03 2.274-.022 4.546-.012 6.82.006l3.916-.006C481.1.195 482.711 1.726 486 5c1.354 2.708 1.13 4.818 1.134 7.852l.014 3.8v4.215c.002 1.483.006 2.965.01 4.447.01 4.089.014 8.177.017 12.266.004 4.403.013 8.807.022 13.21.02 10.643.03 21.285.039 31.927l.015 15.025a85009.026 85009.026 0 0 1 .044 62.888l.002 3.254c.008 17.404.033 34.808.066 52.211.033 17.857.05 35.713.054 53.57.002 10.03.011 20.06.036 30.091.022 8.541.03 17.082.02 25.623-.004 4.36-.002 8.718.017 13.078.018 3.99.017 7.979.001 11.969-.002 1.444.002 2.888.014 4.332.093 12.133.093 12.133-2.285 16.015-3.135 3.145-4.77 4.108-9.211 4.473l-3.564-.005-1.99.005c-2.2.003-4.398-.008-6.597-.019h-4.73c-4.281.002-8.562-.01-12.842-.024-4.474-.013-8.948-.014-13.421-.016-8.472-.006-16.943-.023-25.414-.043-9.645-.022-19.29-.033-28.934-.043-19.839-.021-39.678-.056-59.517-.101l.014 2.013c.11 16.176.193 32.35.245 48.526.026 7.822.061 15.644.118 23.466.05 6.819.082 13.637.093 20.456.007 3.61.022 7.22.059 10.83.04 4.031.04 8.062.039 12.094l.054 3.619c-.056 9.025-.056 9.025-3.032 12.722-3.372 2.961-4.828 3.399-9.192 3.411l-2.957.015-3.271.002-3.457.013c-3.177.011-6.353.018-9.53.022-3.421.006-6.843.018-10.265.029-8.27.024-16.539.039-24.808.052l-7.005.011a49235.463 49235.463 0 0 1-53.555.07l-2.53.001c-13.523.013-27.047.046-40.57.088-13.88.042-27.759.066-41.638.071-7.794.004-15.59.015-23.384.048-6.638.028-13.276.04-19.914.028-3.387-.005-6.773 0-10.16.022-3.673.023-7.344.015-11.016-.001l-3.244.042c-8.043-.086-8.043-.086-11.74-3.063-2.853-3.136-3.475-4.509-3.547-8.606l-.049-2.509c-.044-3.782-.085-7.565-.108-11.347a554.003 554.003 0 0 0-.082-5.989 620.05 620.05 0 0 1-.091-8.628l-.07-2.703c.022-6.162.022-6.162 2.9-9.403 3.672-1.911 5.756-1.495 9.693-.402 2.585 1.895 2.963 2.888 4 6v31h262V153H41l.105 62.133a119655.566 119655.566 0 0 1 .06 59.303l.002 2.585c.013 13.777.037 27.554.064 41.33.029 14.137.045 28.274.051 42.41.004 8.725.017 17.45.042 26.174.016 5.98.02 11.961.017 17.942-.002 3.452 0 6.904.017 10.356.014 3.742.011 7.484.003 11.226l.026 3.307c-.032 5.466-.19 9.563-3.387 14.234-3.092 1.546-5.594 1.294-9 1-2.557-1.981-3.83-3.187-4.501-6.388l-.002-2.71-.032-3.138.027-3.442-.019-3.66c-.013-3.355-.008-6.709.004-10.063.01-3.617-.005-7.234-.016-10.851-.018-7.087-.014-14.174-.002-21.26.009-5.76.01-11.52.006-17.28l-.002-2.482-.004-4.993c-.011-15.614.002-31.227.023-46.84.018-13.399.015-26.797-.003-40.195a21543.852 21543.852 0 0 1-.014-51.639l.002-2.473c.003-5.752-.003-11.504-.012-17.256-.011-7.011-.008-14.022.013-21.033.01-3.578.015-7.155.001-10.732-.014-3.878.003-7.755.023-11.633l-.027-3.429c.061-6.104.29-9.949 4.535-14.503 3.319-2.453 6.515-2.247 10.555-2.24l1.99-.006c2.2-.003 4.398.008 6.597.019h4.73c4.281-.002 8.562.01 12.842.024 4.474.013 8.948.014 13.421.016 8.472.006 16.943.023 25.414.043 9.645.022 19.29.033 28.934.043 19.839.021 39.678.056 59.517.101l-.014-2.048c-.11-16.441-.193-32.883-.245-49.325-.026-7.951-.061-15.902-.118-23.853a3724.2 3724.2 0 0 1-.093-20.791c-.007-3.67-.022-7.339-.059-11.008-.04-4.097-.04-8.193-.039-12.29l-.054-3.686.02-3.386-.013-2.936c1.627-7.08 6.751-8.414 13.25-8.305ZM209 32v105h85c-1.88-3.132-3.426-5.687-5.68-8.426l-1.546-1.89-1.649-1.996-3.504-4.278-1.813-2.206a2693.08 2693.08 0 0 1-8.62-10.579l-1.662-2.044c-3.478-4.281-6.931-8.58-10.37-12.893-2.869-3.576-5.763-7.132-8.656-10.688a1946.431 1946.431 0 0 1-12.355-15.328c-3.354-4.179-6.747-8.326-10.135-12.477a570.049 570.049 0 0 1-8.186-10.265l-1.508-1.943a664.141 664.141 0 0 1-2.802-3.646c-2.047-2.649-3.698-4.463-6.514-6.341Zm213.027 217.695-2.09 2.43-2.39 2.773c-3.163 3.813-6.207 7.718-9.24 11.634-3.877 4.988-7.945 9.787-12.098 14.547a139.305 139.305 0 0 0-7.959 10.046c-3.843 4.96-7.637 7.31-13.852 8.281-11.52.65-20.532-6.577-29.773-12.718l-3.048-2.005c-6.225-4.1-12.423-8.237-18.565-12.46-1.904-1.396-1.904-1.396-4.012-1.223v88h152v-67l-9-9c-1.68-1.93-3.359-3.859-5.026-5.799-4.345-4.845-9.041-9.37-13.662-13.951a5641.045 5641.045 0 0 0-8.858-8.812 110.322 110.322 0 0 1-4.527-4.76c-2.883-2.511-5.014-2.463-7.9.017Z"/><path d="M208 183c2 3 2 3 1.813 6.5-.813 3.5-.813 3.5-2 5.375-2.676 1.66-4.659 1.943-7.813 2.125a64.184 64.184 0 0 1-7-3.813c-9.53-5.483-19.373-7.576-30.27-5.082C149.9 192.31 141.254 199.028 135 211c-6.685 16.712-1.486 34.166 5.223 50.028 5.174 11.682 12.606 24.27 24.414 30.163 5.273 1.805 10.18 1.522 15.425-.191 18.374-12.51 27.373-33.756 31.536-55.059.393-2.873.535-5.605.527-8.504l.008-2.753C212 222.022 211.559 219.6 211 217c-.537-6.127-.537-6.127 1.5-9.438 3.518-2.198 6.462-2.493 10.5-1.562 4.46 3.638 5.356 8.518 6 14 1.988 27.973-9.958 55.102-27.777 76.094-6.563 7.04-15.278 12.371-24.957 13.242-13.658.31-22.172-3.039-32.266-12.336-17.771-17.248-28.47-44.749-29.375-69.25.321-15.79 6.083-30.036 16.96-41.586C151.87 167.982 186.836 162.67 208 183ZM432.875 104.125c8.59 7.422 12.881 15.968 14.438 27.113.538 9.208-2.773 19.031-8.688 26.055-7.942 8.343-16.534 12.718-28.188 13.02-9.915-.11-19.354-3.2-26.437-10.313-7.827-9.12-10.608-17.947-10.285-29.89 1.007-10.984 6.609-19.333 14.879-26.348 13.156-9.633 31.078-9.151 44.281.363Zm-37.75 15.75c-4.109 5.157-5.62 9.188-5.434 15.79.874 6.615 4.436 11.135 9.594 15.148C404.25 154.25 409.09 154.78 415 154c6.178-1.876 10.527-5.614 14-11 2.32-5.446 2.483-10.33 1-16-2.674-6.42-6.824-9.99-13-13-8.453-2.818-16.026-.557-21.875 5.875ZM115.162 349.492l3.16-.034 3.451.024 3.648-.02c3.298-.015 6.594-.012 9.892 0 3.452.01 6.904.001 10.356-.005 5.798-.007 11.594.002 17.392.022 6.7.021 13.4.014 20.101-.008 5.755-.018 11.51-.02 17.264-.01 3.437.006 6.873.007 10.309-.006 3.83-.014 7.66.005 11.492.027l3.45-.024 3.161.034 2.744.005c3.182.662 4.389 2.023 6.418 4.503.566 2 .566 2 .563 4l.066 2c-1.051 3.342-2.621 4.202-5.629 6-3.892.606-7.755.546-11.687.518l-3.584.02c-3.236.015-6.471.012-9.707 0-3.39-.01-6.78-.001-10.17.005-5.693.007-11.386-.002-17.079-.022a2962.73 2962.73 0 0 0-19.728.008c-5.652.018-11.304.02-16.956.01-3.373-.006-6.746-.007-10.12.006-3.76.01-7.52-.005-11.281-.027l-3.38.024c-7.54-.083-7.54-.083-11.5-2.45-1.953-2.26-2.468-3.146-2.37-6.092l-.004-2c1.411-4.985 4.887-6.5 9.728-6.508ZM122.688 443.482l3.583-.02c3.236-.015 6.471-.012 9.707 0 3.39.01 6.78.001 10.17-.005 5.693-.007 11.386.002 17.079.022 6.576.021 13.152.014 19.728-.008 5.652-.018 11.304-.02 16.956-.01 3.373.006 6.746.007 10.12-.006 3.76-.01 7.52.005 11.281.027l3.38-.024c7.54.083 7.54.083 11.5 2.45 1.953 2.26 2.468 3.146 2.37 6.092l.004 2c-.817 2.887-2.28 4.094-4.566 6-2.418.503-2.418.503-5.162.508l-3.16.034-3.451-.024-3.648.02c-3.298.015-6.594.012-9.892 0-3.452-.01-6.904-.001-10.356.005-5.798.007-11.594-.002-17.392-.022-6.7-.021-13.4-.014-20.101.008-5.755.018-11.51.02-17.264.01a1820.93 1820.93 0 0 0-10.309.006c-3.83.014-7.66-.005-11.492-.027l-3.45.024-3.161-.034-2.744-.005c-3.182-.662-4.389-2.023-6.418-4.503-.566-2-.566-2-.563-4l-.066-2c2.42-7.697 10.822-6.565 17.317-6.518ZM115.162 396.492l3.16-.034 3.451.024 3.648-.02c3.298-.015 6.594-.012 9.892 0 3.452.01 6.904.001 10.356-.005 5.798-.007 11.594.002 17.392.022 6.7.021 13.4.014 20.101-.008 5.755-.018 11.51-.02 17.264-.01 3.437.006 6.873.007 10.309-.006 3.83-.014 7.66.005 11.492.027l3.45-.024 3.161.034 2.744.005c3.182.662 4.389 2.023 6.418 4.503.566 2 .566 2 .563 4l.066 2c-1.051 3.342-2.621 4.202-5.629 6-3.892.606-7.755.546-11.687.518l-3.584.02c-3.236.015-6.471.012-9.707 0-3.39-.01-6.78-.001-10.17.005-5.693.007-11.386-.002-17.079-.022a2962.73 2962.73 0 0 0-19.728.008c-5.652.018-11.304.02-16.956.01-3.373-.006-6.746-.007-10.12.006-3.76.01-7.52-.005-11.281-.027l-3.38.024c-7.54-.083-7.54-.083-11.5-2.45-1.953-2.26-2.468-3.146-2.37-6.092l-.004-2c1.411-4.985 4.887-6.5 9.728-6.508ZM309.254 68.58l2.228-.026c2.432-.023 4.863-.024 7.295-.023l5.07-.023c3.544-.013 7.087-.015 10.63-.009 4.541.006 9.081-.025 13.622-.065 3.491-.026 6.982-.029 10.472-.025 1.675-.002 3.349-.012 5.023-.03 2.342-.021 4.681-.012 7.023.006l2.096-.04c3.637.063 5.061.443 7.752 2.967C382 74 382 74 381.937 77.625c-1.254 4.518-1.254 4.518-3.937 6.375-3.423 1.14-6.077 1.141-9.687 1.161l-2.046.015c-2.232.015-4.464.022-6.697.027l-4.66.017c-3.256.01-6.512.017-9.769.02-4.168.006-8.337.03-12.505.058-3.209.019-6.417.024-9.626.026-1.536.003-3.073.01-4.61.024-2.151.017-4.302.015-6.454.008l-3.707.011c-3.563-.404-5.402-1.21-8.239-3.367-2-3-2-3-1.813-6.5 1.556-6.703 4.709-6.947 11.067-6.92ZM330.75 38.469l2.23-.012c1.55-.003 3.1.005 4.649.022 2.364.02 4.726 0 7.09-.026 1.51.003 3.02.008 4.531.016l2.128-.025c4.792.091 7.267 1.145 10.622 4.556.664 2 .664 2 .625 4l.04 2c-1.054 3.17-2.896 4.204-5.665 6-2.724.39-5.033.563-7.75.531l-2.23.012c-1.55.003-3.1-.005-4.649-.022-2.364-.02-4.726 0-7.09.026-1.51-.003-3.02-.008-4.531-.016l-2.128.025C323.83 55.465 321.355 54.41 318 51c-.664-2-.664-2-.625-4l-.04-2c2.034-6.123 7.817-6.596 13.415-6.531ZM271.875 169.813l2.434-.038c4.292-.01 7.866.036 11.691 2.225 2.48 3.72 2.463 5.598 2 10-2.054 2.677-3.252 3.85-6.594 4.518l-2.906.013-3.188.016L272 186.5l-3.313.047-3.187-.016-2.906-.013c-3.34-.667-4.533-1.85-6.594-4.518-.5-3.5-.5-3.5 0-7 4.325-5.667 9.35-5.182 15.875-5.188ZM71.875 169.75l2.395-.063c4.989-.033 8.415.526 12.73 3.313 1.546 3.092 1.294 5.594 1 9-2.05 2.683-3.25 3.85-6.594 4.518l-2.906.013-3.188.016L72 186.5l-3.313.047-3.187-.016-2.906-.013c-3.34-.667-4.536-1.847-6.594-4.518-.465-3.721-.509-6.034 1.25-9.375 3.898-3.62 9.61-2.843 14.625-2.875Z"/><path d="m172 210.375 2-.04c3.197 1.063 4.264 2.837 6 5.665.531 3.41.531 3.41.5 7.063l.031 3.66c-.619 3.82-1.482 4.975-4.531 7.277-3.685 1.176-5.283 1.335-8.813-.313C165 232 165 232 164 230c-.175-2.266-.267-4.54-.313-6.813l-.113-3.707c.621-5.076 2.85-9.214 8.426-9.105Z"/></svg>
